<?xml version="1.0" encoding="UTF-8"?>
<svg width="567px" height="815px" viewBox="0 0 567 815" version="1.1" xmlns="http://www.w3.org/2000/svg" xmlns:xlink="http://www.w3.org/1999/xlink">
    <title>Stroke 1 Copy</title>
    <g id="Page-1" stroke="none" stroke-width="1" fill="none" fill-rule="evenodd">
        <g id="Homepage" transform="translate(-873.000000, -3523.000000)" stroke="#ED3324" stroke-width="2">
            <path d="M2168.80864,3933 L2168.80864,3933 L2330,3755.3085 L2251.6313,3755.3085 L2233.21742,3778.16679 L2226.5401,3778.16679 C2224.60611,3774.21972 2221.74009,3770.62206 2217.97943,3767.43886 C2214.18741,3764.22916 2209.49472,3761.44959 2203.94958,3759.1652 C2198.37188,3756.86757 2191.94414,3755.07837 2184.72666,3753.86148 C2177.48626,3752.63977 2169.47299,3752 2160.75437,3752 C2160.62898,3752 2160.50117,3752 2160.37457,3752 C2160.24676,3752 2160.12137,3752 2159.99356,3752 C2159.86696,3752 2159.73915,3752 2159.61255,3752 C2159.48474,3752 2159.35693,3752.00482 2159.22913,3752.00602 C2142.89995,3752.14579 2126.24161,3754.17836 2110.01131,3757.97 C2093.93896,3761.7255 2078.43209,3767.1738 2064.19967,3774.1402 C2050.22649,3780.9813 2037.59167,3789.23327 2026.92339,3798.70455 C2016.52398,3807.93606 2008.06339,3818.26397 2002.06851,3829.49793 C1996.31237,3840.2849 1994.26504,3849.59352 1995.22842,3857.46355 C1996.1713,3865.15166 1999.99345,3871.52528 2006.11132,3876.58803 C2012.13513,3881.57247 2020.42813,3885.32435 2030.48631,3887.82319 C2040.46613,3890.30156 2052.25814,3891.56544 2065.41264,3891.56544 C2065.532,3891.56544 2065.65137,3891.56544 2065.77074,3891.56423 C2065.89011,3891.56423 2066.00947,3891.56423 2066.12884,3891.56423 C2066.24821,3891.56303 2066.36757,3891.56303 2066.48694,3891.56182 C2066.60631,3891.56182 2066.72688,3891.56062 2066.84745,3891.55941 C2074.10232,3891.50881 2081.41988,3891.0076 2088.72539,3890.09071 C2096.0526,3889.17262 2103.38583,3887.83283 2110.65155,3886.10629 C2117.95585,3884.37011 2125.20831,3882.23754 2132.32813,3879.7399 C2139.50342,3877.22178 2146.56054,3874.32774 2153.41149,3871.08551 L2158.35739,3871.08551 L2108.47762,3933 L2108.47762,3933 L2158.35859,3994.91449 L2153.4127,3994.91449 C2146.56054,3991.67226 2139.50462,3988.77822 2132.32934,3986.2601 C2125.20951,3983.76246 2117.95706,3981.62989 2110.65276,3979.89371 C2103.38704,3978.16717 2096.0526,3976.82738 2088.72659,3975.90809 C2081.41988,3974.9924 2074.10352,3974.49119 2066.84866,3974.43938 C2066.72929,3974.43938 2066.60872,3974.43818 2066.48935,3974.43818 C2066.36878,3974.43697 2066.24941,3974.43697 2066.13005,3974.43577 C2066.00947,3974.43577 2065.89011,3974.43577 2065.77074,3974.43577 C2065.65137,3974.43456 2065.532,3974.43456 2065.41384,3974.43456 C2052.25814,3974.43456 2040.46492,3975.69844 2030.48511,3978.17681 C2020.42693,3980.67445 2012.13272,3984.42633 2006.11011,3989.41197 C1999.99225,3994.47352 1996.17009,4000.84714 1995.22842,4008.53524 C1994.26504,4016.40528 1996.31237,4025.7151 2002.06972,4036.50327 C2008.0646,4047.73723 2016.52519,4058.06394 2026.92459,4067.29545 C2037.59408,4076.76673 2050.2277,4085.0187 2064.20088,4091.85859 C2078.4345,4098.8262 2093.94016,4104.2733 2110.01131,4108.0288 C2126.24161,4111.82164 2142.89995,4113.85421 2159.22913,4113.99398 C2159.35693,4113.99518 2159.48474,4114 2159.61255,4114 C2159.74036,4114 2159.86696,4114 2159.99476,4114 C2160.12137,4114 2160.24917,4114 2160.37577,4114 C2160.50238,4114 2160.62898,4114 2160.75558,4114 C2169.4742,4114 2177.48867,4113.36023 2184.72907,4112.13852 C2191.94656,4110.92283 2198.37309,4109.13243 2203.95199,4106.8348 C2209.49713,4104.55162 2214.18983,4101.77084 2217.98184,4098.56114 C2221.7413,4095.37794 2224.60732,4091.78028 2226.5413,4087.83321 L2233.21742,4087.83321 L2251.63371,4110.6915 L2330,4110.6915 L2168.80864,3933 Z M2168.40864,3845.34333 C2162.3689,3849.7634 2156.18539,3852.95108 2149.80856,3855.24563 C2143.47765,3857.5246 2136.92201,3858.93442 2130.11266,3859.78799 C2123.32022,3860.63915 2116.25231,3860.94126 2108.89081,3860.99281 C2108.73133,3860.99401 2108.57185,3860.9952 2108.41358,3860.9964 C2108.2541,3860.9976 2108.09461,3860.9976 2107.93634,3860.9988 C2107.77807,3860.9988 2107.61859,3861 2107.46152,3861 C2107.30325,3861 2107.14498,3861 2106.9867,3861 C2099.87409,3861 2093.29188,3860.6907 2087.68346,3859.83234 C2082.06055,3858.97159 2077.39815,3857.55697 2074.14087,3855.34034 C2070.86305,3853.10933 2068.99277,3850.05352 2069,3845.90438 C2069.00606,3841.70249 2070.93675,3836.35333 2075.31281,3829.5416 C2079.87856,3822.43736 2085.12331,3816.66021 2090.93832,3811.99318 C2096.82946,3807.26381 2103.2679,3803.7069 2110.14008,3801.05989 C2117.063,3798.3925 2124.39067,3796.66379 2132.01797,3795.58605 C2139.66702,3794.50471 2147.59033,3794.08152 2155.69728,3794.01798 C2156.03678,3794.01558 2156.37628,3794.01319 2156.71578,3794.01079 C2157.05407,3794.00839 2157.39116,3794.00719 2157.72824,3794.0048 C2158.06533,3794.0036 2158.40121,3794.0024 2158.73587,3794.0012 C2159.07054,3794.0012 2159.40279,3794 2159.73505,3794 C2167.31402,3794 2174.30098,3794.21339 2180.13653,3795.02979 C2185.96001,3795.84499 2190.61878,3797.25601 2193.55589,3799.64288 C2196.47246,3802.01295 2197.6734,3805.3337 2196.62832,3809.95038 C2195.59532,3814.50952 2192.38153,3820.29865 2186.52785,3827.61269 C2180.54732,3835.08617 2174.52933,3840.86332 2168.40864,3845.34333 Z M2186.52867,4038.38611 C2192.38377,4045.70135 2195.59647,4051.49048 2196.6283,4056.04842 C2197.67343,4060.6651 2196.47244,4063.98585 2193.55576,4066.35712 C2190.61975,4068.74279 2185.9608,4070.15501 2180.1371,4070.96901 C2174.30012,4071.78541 2167.31531,4072 2159.73485,4072 C2159.40379,4072 2159.07032,4071.9988 2158.73564,4071.9988 C2158.40095,4071.9976 2158.06506,4071.9964 2157.72918,4071.9952 C2157.39208,4071.99401 2157.05498,4071.99161 2156.71667,4071.98921 C2156.37837,4071.98681 2156.03885,4071.98442 2155.69692,4071.98202 C2147.59087,4071.91848 2139.66727,4071.49529 2132.01672,4070.41395 C2124.38914,4069.33621 2117.0624,4067.6075 2110.13921,4064.94131 C2103.26677,4062.2931 2096.82809,4058.73619 2090.93552,4054.00682 C2085.12029,4049.33979 2079.87534,4043.56384 2075.31063,4036.4584 C2070.9344,4029.64787 2069.00485,4024.29751 2069,4020.09682 C2068.99397,4015.94768 2070.86553,4012.89187 2074.14468,4010.66086 C2077.40208,4008.44303 2082.06587,4007.02841 2087.68779,4006.16766 C2093.29521,4005.3093 2099.87646,4005 2106.98572,4005 C2107.144,4005 2107.30228,4005 2107.46055,4005 C2107.61883,4005 2107.77711,4005.0012 2107.93539,4005.0012 C2108.09367,4005.0024 2108.25195,4005.0024 2108.41144,4005.0036 C2108.57092,4005.0048 2108.7292,4005.0048 2108.8899,4005.00719 C2116.25167,4005.05874 2123.31985,4005.36085 2130.11255,4006.21201 C2136.92216,4007.06558 2143.47683,4008.4754 2149.80919,4010.75437 C2156.18505,4013.04892 2162.37001,4016.2366 2168.40997,4020.65667 C2174.53089,4025.13549 2180.5479,4030.91383 2186.52867,4038.38611 Z M2131.51765,3479.95745 L2175,3389 L2085.1829,3389 C2051.97975,3389 2025.24659,3390.26767 2003.28428,3393.98866 C1981.46418,3397.68553 1964.54024,3403.773 1950.85432,3413.32938 C1937.39977,3422.72413 1927.24108,3435.35741 1918.76706,3452.08076 C1910.54731,3468.29995 1904.03514,3488.12312 1897.72783,3512.08704 L1838,3739 L1918.04041,3739 L1996.82755,3522.88696 C1999.71609,3514.96251 2002.96012,3508.31177 2006.56327,3502.79119 C2010.20497,3497.21272 2014.19615,3492.81507 2018.54041,3489.42939 C2022.91238,3486.022 2027.62298,3483.65552 2032.67702,3482.13818 C2037.74432,3480.61721 2043.13939,3479.95745 2048.86707,3479.95745 L2131.51765,3479.95745 Z M1836.63,3644.88529 C1840.86717,3626.81567 1841.03357,3610.06681 1837.55244,3594.98245 C1833.95555,3579.39513 1826.4977,3565.7232 1815.75768,3554.32129 C1804.75842,3542.64557 1790.43357,3533.47386 1773.5247,3527.1282 C1756.39879,3520.70053 1736.82511,3517.24726 1715.68872,3517.01086 C1715.52353,3517.00844 1715.35954,3517.00724 1715.19314,3517.00603 C1715.02795,3517.00482 1714.86155,3517.00362 1714.69636,3517.00241 C1714.53116,3517.00241 1714.36597,3517 1714.20077,3517 C1714.03558,3517 1713.87039,3517 1713.70519,3517 C1702.34178,3517 1691.24243,3518.08796 1680.5639,3520.16016 C1669.92879,3522.22392 1659.75429,3525.25623 1650.18389,3529.1425 C1640.68705,3532.99983 1631.81842,3537.68701 1623.70703,3543.08582 C1615.68247,3548.42674 1608.42478,3554.45035 1602.04613,3561.03965 L1593.4488,3561.03965 L1592.01994,3522.60507 L1490,3522.60507 L1519.95316,3738.72043 L1600.05536,3738.72043 L1599.0039,3710.46109 L1605.16311,3710.46109 C1610.61692,3715.4872 1616.63987,3719.9645 1623.15599,3723.85077 C1629.6094,3727.69966 1636.56443,3730.97923 1643.95354,3733.64487 C1651.29202,3736.29361 1659.07904,3738.34531 1667.25675,3739.75049 C1675.40431,3741.15206 1683.96425,3741.91677 1692.88352,3741.99276 C1693.03303,3741.99397 1693.18255,3741.99517 1693.33207,3741.99638 C1693.4828,3741.99759 1693.63232,3741.99759 1693.78183,3742 C1693.93135,3742 1694.08087,3742 1694.23039,3742 C1694.37991,3742 1694.52943,3742 1694.67895,3742 C1710.93427,3742 1726.74949,3740.06892 1741.54218,3736.27311 C1756.47837,3732.4399 1770.51504,3726.66959 1783.02034,3718.97785 C1795.7656,3711.13775 1807.04099,3701.22666 1816.12425,3689.20356 C1825.47519,3676.82706 1832.59541,3662.09129 1836.63,3644.88529 Z M1743.7394,3645.47333 C1742.32681,3656.41278 1739.34403,3664.9633 1735.13255,3671.6516 C1730.98675,3678.23745 1725.61703,3683.07198 1719.33265,3686.59512 C1713.10081,3690.08933 1705.93162,3692.31555 1698.12719,3693.66671 C1690.34904,3695.01546 1681.90936,3695.5 1673.11864,3695.5 C1672.92878,3695.5 1672.73892,3695.5 1672.54787,3695.5 C1672.35801,3695.49879 1672.16816,3695.49879 1671.97711,3695.49759 C1671.78725,3695.49638 1671.5962,3695.49518 1671.40515,3695.49397 C1671.2141,3695.49277 1671.02305,3695.49156 1670.832,3695.48915 C1661.78812,3695.40478 1653.34726,3694.93109 1645.77329,3693.59078 C1638.17662,3692.24806 1631.42178,3690.02786 1625.76548,3686.43481 C1620.06261,3682.81163 1615.43918,3677.76738 1612.16027,3670.75003 C1608.82643,3663.61696 1606.85145,3654.37821 1606.5386,3642.36723 C1606.23053,3630.53945 1607.77446,3621.13316 1610.88381,3613.69997 C1614.04571,3606.14384 1618.7969,3600.6946 1624.80545,3596.79661 C1630.86296,3592.86607 1638.15991,3590.53981 1646.34883,3589.19709 C1654.56282,3587.85075 1663.64012,3587.5 1673.25834,3587.5 C1673.67149,3587.5 1674.08464,3587.5 1674.49898,3587.50121 C1674.91213,3587.50241 1675.32766,3587.50482 1675.7432,3587.50723 C1676.15873,3587.50964 1676.57546,3587.51205 1676.99339,3587.51567 C1677.41131,3587.51929 1677.83043,3587.5229 1678.25074,3587.52772 C1688.46121,3587.6362 1698.07824,3588.3377 1706.6815,3590.12518 C1715.25132,3591.90664 1722.77395,3594.75842 1728.8219,3599.14818 C1734.81374,3603.49696 1739.31896,3609.32708 1741.93158,3617.05196 C1744.5,3624.64786 1745.21885,3634.01197 1743.7394,3645.47333 Z M1498,3738.64637 L1462.20339,3524 L1360.4747,3524 L1388.69988,3629.08225 L1393.40287,3646.59416 L1394.12659,3649.29023 C1396.68126,3658.79896 1397.01788,3666.24999 1395.61732,3672.09249 C1394.23599,3677.85473 1391.15356,3682.09108 1386.798,3685.1836 C1382.4737,3688.25217 1376.87146,3690.20805 1370.40004,3691.39739 C1363.94665,3692.58314 1356.60363,3693.01072 1348.78093,3693.01072 C1348.61263,3693.01072 1348.44191,3693.01072 1348.2724,3693.00953 C1348.10169,3693.00953 1347.93098,3693.00833 1347.76147,3693.00833 C1347.59076,3693.00713 1347.42005,3693.00593 1347.24934,3693.00474 C1347.07862,3693.00354 1346.90671,3693.00234 1346.7348,3692.99995 C1338.65964,3692.92808 1330.98482,3692.51127 1323.79087,3691.33391 C1316.57649,3690.15296 1309.81774,3688.20067 1303.57834,3685.04467 C1297.29085,3681.86591 1291.49506,3677.44392 1286.24025,3671.30439 C1280.90971,3665.07503 1276.09492,3657.02633 1271.84515,3646.59416 L1261.19609,3620.44666 L1221.91431,3524 L1117.74517,3524 L1171.50139,3629.08225 L1180.46016,3646.59416 L1181.83908,3649.29023 C1186.70317,3658.79896 1188.85029,3666.24999 1188.86953,3672.09249 C1188.88756,3677.85473 1186.83421,3682.09108 1183.22882,3685.1836 C1179.64988,3688.25217 1174.52131,3690.20805 1168.33721,3691.39739 C1162.16994,3692.58314 1154.92791,3693.01072 1147.10281,3693.01072 C1146.9333,3693.01072 1146.76379,3693.01072 1146.59308,3693.00953 C1146.42237,3693.00953 1146.25165,3693.00833 1146.08094,3693.00833 C1145.91023,3693.00713 1145.73952,3693.00593 1145.56881,3693.00474 C1145.39689,3693.00354 1145.22498,3693.00234 1145.05306,3692.99995 C1136.95988,3692.92808 1129.18407,3692.51127 1121.704,3691.33391 C1114.20229,3690.15296 1106.96988,3688.20067 1099.96347,3685.04467 C1092.90417,3681.86591 1086.03362,3677.44392 1079.28689,3671.30439 C1072.44278,3665.07503 1065.67201,3657.02633 1058.88802,3646.59416 L1058.90244,3646.59416 L1041.89977,3620.44666 L979.184776,3524 L875,3524 L975.451955,3657.12933 C991.947296,3678.99018 1009.77948,3694.92349 1027.42412,3706.66357 C1044.57586,3718.07548 1061.86586,3725.73731 1077.73606,3730.91507 C1093.40188,3736.02576 1107.87273,3738.77932 1119.47633,3740.25851 C1131.03665,3741.73291 1139.82712,3741.95329 1144.05284,3741.95329 C1144.50366,3741.95329 1144.90279,3741.95089 1145.24662,3741.9473 C1145.59165,3741.94251 1145.88258,3741.93772 1146.11581,3741.93293 C1146.35023,3741.92814 1146.52696,3741.92335 1146.64718,3741.91855 C1146.76619,3741.91496 1146.8263,3741.91257 1146.8263,3741.91257 C1146.8263,3741.91257 1146.9345,3741.91855 1147.14368,3741.92574 C1147.35287,3741.93413 1147.66183,3741.9449 1148.06337,3741.95568 C1148.4661,3741.96766 1148.959,3741.97844 1149.53726,3741.98563 C1150.11552,3741.99401 1150.77672,3742 1151.51367,3742 C1155.28737,3742 1161.0507,3741.85747 1167.71207,3741.20591 C1174.38667,3740.55435 1181.98214,3739.39016 1189.43096,3737.34205 C1196.91824,3735.28197 1204.29251,3732.3188 1210.48863,3728.05251 C1216.75088,3723.74071 1221.8518,3718.06949 1224.68297,3710.58731 L1229.00246,3710.58731 L1228.99766,3710.57773 C1238.78835,3718.17369 1248.85193,3723.89641 1258.59574,3728.22379 C1268.23375,3732.50445 1277.62411,3735.44726 1286.1549,3737.475 C1294.64121,3739.49077 1302.31603,3740.60944 1308.54221,3741.22507 C1314.75756,3741.83831 1319.54351,3741.95209 1322.23883,3741.95209 C1322.63436,3741.95209 1322.9854,3741.9497 1323.28955,3741.9461 C1323.59251,3741.94251 1323.84858,3741.93772 1324.05535,3741.93293 C1324.26213,3741.92694 1324.41962,3741.92215 1324.52421,3741.91855 C1324.63,3741.91496 1324.6841,3741.91257 1324.6841,3741.91257 C1324.6841,3741.91257 1324.77787,3741.91855 1324.9582,3741.92574 C1325.13853,3741.93413 1325.40662,3741.9449 1325.75406,3741.95568 C1326.10269,3741.96766 1326.53068,3741.97844 1327.0344,3741.98563 C1327.53691,3741.99401 1328.11277,3742 1328.75714,3742 C1332.05717,3742 1337.13045,3741.85747 1343.1246,3741.20591 C1349.13077,3740.55435 1356.07586,3739.39016 1363.12795,3737.34205 C1370.21851,3735.28197 1377.44732,3732.3188 1383.99207,3728.05251 C1390.60656,3723.74071 1396.56585,3718.06949 1401.02119,3710.58731 L1410.59068,3710.58731 L1418.12845,3738.64637 L1498,3738.64637 Z M1091.19191,3933 L1091.19191,3933 L930,4110.6915 L1008.36776,4110.6915 L1026.78411,4087.83321 L1033.44699,4087.83321 C1035.38339,4091.78028 1038.25183,4095.37794 1042.01251,4098.56114 C1045.80574,4101.77084 1050.49845,4104.55041 1056.04361,4106.8348 C1061.62253,4109.13243 1068.04908,4110.92163 1075.2678,4112.13852 C1082.50822,4113.36023 1090.52272,4114 1099.24499,4114 C1099.37159,4114 1099.49819,4114 1099.6248,4114 C1099.7526,4114 1099.87921,4114 1100.00581,4114 C1100.13361,4114 1100.26142,4114 1100.38802,4114 C1100.51583,4114 1100.64364,4113.99518 1100.77145,4113.99398 C1117.10068,4113.85421 1133.75907,4111.82164 1149.98943,4108.0288 C1166.06063,4104.2733 1181.56755,4098.8262 1195.80001,4091.85859 C1209.77445,4085.0187 1222.40811,4076.76673 1233.07763,4067.29545 C1243.47586,4058.06394 1251.93649,4047.73723 1257.93259,4036.50327 C1263.68876,4025.71631 1265.73488,4016.40648 1264.7715,4008.53645 C1263.82983,4000.84834 1260.00645,3994.47472 1253.88977,3989.41197 C1247.86593,3984.42753 1239.5717,3980.67565 1229.51349,3978.17681 C1219.53485,3975.69844 1207.74279,3974.43456 1194.58825,3974.43456 C1194.46768,3974.43456 1194.34831,3974.43456 1194.23015,3974.43577 C1194.11078,3974.43577 1193.99141,3974.43577 1193.87205,3974.43577 C1193.75268,3974.43697 1193.63331,3974.43697 1193.51394,3974.43818 C1193.39337,3974.43818 1193.274,3974.43938 1193.15222,3974.43938 C1185.89734,3974.49119 1178.58095,3974.9924 1171.27422,3975.90809 C1163.94819,3976.82738 1156.61372,3978.16717 1149.34798,3979.89371 C1142.04365,3981.62989 1134.79118,3983.76246 1127.67133,3986.2601 C1120.49602,3988.77822 1113.44007,3991.67226 1106.5879,3994.91449 L1101.64199,3994.91449 L1151.52312,3933 L1151.52191,3933 L1101.64199,3871.08551 L1106.5879,3871.08551 C1113.43887,3874.32774 1120.49481,3877.22178 1127.67012,3879.7399 C1134.78997,3882.23754 1142.04365,3884.37011 1149.34798,3886.10629 C1156.61252,3887.83283 1163.94698,3889.17262 1171.27422,3890.09071 C1178.57975,3891.0076 1185.89734,3891.50881 1193.15102,3891.55941 C1193.27159,3891.56062 1193.39096,3891.56182 1193.51153,3891.56182 C1193.6309,3891.56303 1193.75147,3891.56303 1193.87084,3891.56423 C1193.99021,3891.56423 1194.10958,3891.56423 1194.22894,3891.56423 C1194.34831,3891.56544 1194.46768,3891.56544 1194.58705,3891.56544 C1207.74279,3891.56544 1219.53605,3890.30156 1229.5159,3887.82319 C1239.57291,3885.32555 1247.86714,3881.57367 1253.89098,3876.58803 C1260.00766,3871.52648 1263.83103,3865.15286 1264.7715,3857.46476 C1265.73488,3849.59472 1263.68755,3840.2849 1257.93138,3829.49793 C1251.93649,3818.26397 1243.47466,3807.93606 1233.07642,3798.70455 C1222.4069,3789.23327 1209.77324,3780.9813 1195.79881,3774.1402 C1181.56635,3767.1738 1166.06063,3761.7255 1149.98822,3757.97 C1133.75786,3754.17836 1117.09947,3752.14579 1100.77024,3752.00602 C1100.64243,3752.00482 1100.51463,3752 1100.38802,3752 C1100.26022,3752 1100.13241,3752 1100.00581,3752 C1099.878,3752 1099.75019,3752 1099.62359,3752 C1099.49699,3752 1099.37039,3752 1099.24378,3752 C1090.52152,3752 1082.50702,3752.63977 1075.26539,3753.86028 C1068.04667,3755.07717 1061.62012,3756.86757 1056.0412,3759.1652 C1050.49724,3761.44838 1045.80453,3764.22916 1042.0113,3767.43886 C1038.25062,3770.62085 1035.38339,3774.21972 1033.44699,3778.16679 L1026.7817,3778.16679 L1008.36655,3755.3085 L930,3755.3085 L1091.19191,3933 Z M1092.59231,4020.65667 C1098.63206,4016.2366 1104.8168,4013.04892 1111.19243,4010.75437 C1117.52457,4008.4754 1124.07902,4007.06558 1130.8896,4006.21201 C1137.68085,4005.36085 1144.74999,4005.05874 1152.1103,4005.00719 C1152.26978,4005.0048 1152.42926,4005.0048 1152.58874,4005.0036 C1152.74701,4005.0024 1152.90649,4005.0024 1153.06477,4005.0012 C1153.22304,4005.0012 1153.38252,4005 1153.5408,4005 C1153.69907,4005 1153.85613,4005 1154.01441,4005 C1161.12462,4005 1167.70565,4005.3093 1173.31287,4006.16766 C1178.9358,4007.02841 1183.59942,4008.44303 1186.85671,4010.65966 C1190.13454,4012.89067 1192.00603,4015.94648 1192,4020.09682 C1191.99515,4024.29751 1190.06567,4029.64667 1185.68839,4036.4584 C1181.12383,4043.56384 1175.87907,4049.33979 1170.06404,4054.00682 C1164.17168,4058.73619 1157.73322,4062.2931 1150.86223,4064.94131 C1143.93808,4067.6075 1136.6116,4069.33621 1128.98428,4070.41395 C1121.334,4071.49529 1113.41188,4071.91848 1105.30491,4071.98202 C1104.9642,4071.98442 1104.6247,4071.98681 1104.2864,4071.98921 C1103.9469,4071.99161 1103.60861,4071.99401 1103.27152,4071.9952 C1102.93565,4071.9964 1102.59977,4071.9976 1102.2651,4071.9988 C1101.93043,4071.9988 1101.59697,4072 1101.26592,4072 C1093.68331,4072 1086.69633,4071.78541 1080.85955,4070.97021 C1075.03606,4070.15501 1070.37727,4068.74399 1067.44136,4066.35712 C1064.52599,4063.98705 1063.32626,4060.6663 1064.37255,4056.04962 C1065.40556,4051.49048 1068.61935,4045.70135 1074.47425,4038.38611 C1080.4548,4030.91383 1086.47281,4025.13549 1092.59231,4020.65667 Z M1074.47314,3827.61269 C1068.61939,3820.29865 1065.40557,3814.50952 1064.37255,3809.95158 C1063.32625,3805.3349 1064.526,3802.01415 1067.44139,3799.64288 C1070.37612,3797.25721 1075.03375,3795.84499 1080.85487,3795.03099 C1086.6905,3794.21459 1093.67513,3794 1101.25419,3794 C1101.58645,3794 1101.91991,3794.0012 1102.25459,3794.0012 C1102.58805,3794.0024 1102.92393,3794.0036 1103.26102,3794.0048 C1103.5969,3794.00599 1103.93399,3794.00839 1104.27349,3794.01079 C1104.61179,3794.01199 1104.9513,3794.01558 1105.29201,3794.01798 C1113.40148,3794.08152 1121.3273,3794.50471 1128.97885,3795.58605 C1136.60866,3796.66379 1143.93642,3798.3925 1150.85943,3801.05989 C1157.7329,3803.7069 1164.17263,3807.26381 1170.06383,3811.99318 C1175.87892,3816.66021 1181.12373,3822.43736 1185.68954,3829.5416 C1190.06565,3836.35333 1191.99394,3841.70249 1192,3845.90318 C1192.00603,3850.05232 1190.13452,3853.10813 1186.85545,3855.34034 C1183.59813,3857.55697 1178.93447,3858.97159 1173.31269,3859.83234 C1167.70542,3860.6907 1161.12433,3861 1154.01405,3861 C1153.85577,3861 1153.6975,3861 1153.54043,3861 C1153.38216,3861 1153.22388,3861 1153.06561,3860.9988 C1152.90613,3860.9976 1152.74785,3860.9976 1152.58958,3860.9964 C1152.43009,3860.9952 1152.27061,3860.99401 1152.10992,3860.99281 C1144.74954,3860.94126 1137.68155,3860.63915 1130.88902,3859.78799 C1124.07958,3858.93442 1117.52387,3857.5246 1111.19167,3855.24563 C1104.81598,3852.95108 1098.63239,3849.7634 1092.59258,3845.34333 C1086.47182,3840.86332 1080.45375,3835.08617 1074.47314,3827.61269 Z M1128.4834,4386.04287 L1085,4477 L1174.7987,4477 C1208.00173,4477 1234.736,4475.73233 1256.69944,4472.01136 C1278.52067,4468.31571 1295.44816,4462.22826 1309.13523,4452.67312 C1322.59215,4443.2784 1332.75322,4430.64637 1341.22841,4413.92669 C1349.44813,4397.70998 1355.96027,4377.88807 1362.26756,4353.92786 L1422,4127 L1341.94662,4127 L1263.15736,4343.1135 C1260.26762,4351.03792 1257.0248,4357.68864 1253.42288,4363.208 C1249.78118,4368.78766 1245.79123,4373.18529 1241.44939,4376.57095 C1237.07864,4379.97713 1232.36806,4382.3448 1227.31403,4383.86094 C1222.24555,4385.3831 1216.84808,4386.04287 1211.11561,4386.04287 L1128.4834,4386.04287 Z M1423.37019,4221.1135 C1419.13301,4239.18433 1418.96661,4255.93319 1422.44655,4271.01634 C1426.04345,4286.60487 1433.50131,4300.2768 1444.24137,4311.67871 C1455.23946,4323.35443 1469.56555,4332.52614 1486.47447,4338.873 C1503.60043,4345.29947 1523.17296,4348.75274 1544.31062,4348.98914 C1544.47461,4348.99156 1544.6398,4348.99276 1544.8062,4348.99397 C1544.97139,4348.99518 1545.13659,4348.99638 1545.30299,4348.99759 C1545.46818,4349 1545.63338,4349 1545.79857,4349 C1545.96377,4349 1546.12896,4349 1546.29416,4349 C1557.66122,4349 1568.76422,4347.91204 1579.44519,4345.83984 C1590.08274,4343.77729 1600.25969,4340.74498 1609.83011,4336.8575 C1619.32819,4333.00017 1628.19805,4328.3142 1636.30946,4322.91418 C1644.33284,4317.57326 1651.59055,4311.55086 1657.97043,4304.96156 L1666.56777,4304.96156 L1667.99665,4343.39493 L1770,4343.39493 L1740.05037,4127.27837 L1659.9612,4127.27837 L1661.01145,4155.53891 L1654.85223,4155.53891 C1649.39961,4150.5128 1643.37544,4146.0355 1636.8581,4142.15043 C1630.40345,4138.30034 1623.4472,4135.02077 1616.05806,4132.35513 C1608.71837,4129.70639 1600.93011,4127.65469 1592.75359,4126.24951 C1584.60721,4124.84794 1576.04845,4124.08323 1567.13157,4124.00724 C1566.98205,4124.00603 1566.83253,4124.00483 1566.68301,4124.00362 C1566.53349,4124.00241 1566.38397,4124.00241 1566.23445,4124 C1566.08373,4124 1565.93421,4124 1565.7859,4124 C1565.63638,4124 1565.48686,4124 1565.33734,4124 C1549.08196,4124 1533.2655,4125.93108 1518.47155,4129.72689 C1503.53291,4133.5601 1489.49379,4139.33041 1476.98845,4147.02094 C1464.24075,4154.86225 1452.96411,4164.77334 1443.87963,4176.79523 C1434.52745,4189.17173 1427.40479,4203.90871 1423.37019,4221.1135 Z M1516.2604,4222.52788 C1517.67418,4211.58722 1520.65696,4203.03791 1524.86724,4196.3484 C1529.01304,4189.76255 1534.38276,4184.92802 1540.66833,4181.40488 C1546.90017,4177.91067 1554.06935,4175.68445 1561.87258,4174.33329 C1569.65073,4172.98574 1578.0916,4172.5 1586.88232,4172.5 C1587.07098,4172.5 1587.26203,4172.5 1587.45308,4172.5 C1587.64294,4172.5 1587.8328,4172.50121 1588.02265,4172.50241 C1588.2137,4172.50241 1588.40356,4172.50482 1588.59581,4172.50603 C1588.78566,4172.50723 1588.97671,4172.50844 1589.16896,4172.50964 C1598.21163,4172.59522 1606.65369,4173.06891 1614.22646,4174.40802 C1621.82431,4175.75194 1628.57796,4177.97214 1634.23306,4181.56519 C1639.93831,4185.18837 1644.56174,4190.23383 1647.84065,4197.24997 C1651.17448,4204.38424 1653.14828,4213.623 1653.46112,4225.63277 C1653.77039,4237.46055 1652.22646,4246.86684 1649.11711,4254.30003 C1645.95402,4261.85616 1641.20402,4267.3054 1635.19548,4271.20339 C1629.13678,4275.13393 1621.84103,4277.46019 1613.65092,4278.80291 C1605.43813,4280.14925 1596.35963,4280.5 1586.74142,4280.5 C1586.32947,4280.5 1585.91512,4280.5 1585.50198,4280.49879 C1585.08764,4280.49759 1584.67329,4280.49518 1584.25776,4280.49277 C1583.84103,4280.49036 1583.4243,4280.48795 1583.00638,4280.48433 C1582.58845,4280.48071 1582.17053,4280.4771 1581.75022,4280.47228 C1571.53617,4280.3638 1561.91676,4279.6623 1553.31351,4277.87482 C1544.74249,4276.09336 1537.21987,4273.24158 1531.17311,4268.85182 C1525.18128,4264.50304 1520.67845,4258.67292 1518.06703,4250.94804 C1515.49859,4243.35214 1514.78215,4233.98803 1516.2604,4222.52788 Z M2023.5,4110.5 L1982.00513,4028.53589 C1974.93736,4014.57288 1965.60227,4004.30435 1955.46371,3996.68652 C1945.55127,3989.24063 1934.72709,3984.21898 1924.38405,3980.81511 C1914.14925,3977.44636 1904.28734,3975.62878 1896.22965,3974.65037 C1888.19601,3973.67558 1881.91369,3973.53027 1878.87777,3973.53027 C1878.55421,3973.53027 1878.26794,3973.53148 1878.02016,3973.53512 C1877.77238,3973.53754 1877.56309,3973.53996 1877.39469,3973.54359 C1877.22509,3973.54723 1877.09639,3973.54965 1877.01099,3973.55207 C1876.92439,3973.55449 1876.87989,3973.55691 1876.87989,3973.55691 C1876.87989,3973.55691 1876.80531,3973.55328 1876.66097,3973.54723 C1876.51543,3973.54238 1876.30013,3973.53512 1876.02107,3973.52785 C1875.74082,3973.52059 1875.39561,3973.51332 1874.99026,3973.50848 C1874.58611,3973.50363 1874.12182,3973.5 1873.6022,3973.5 C1870.93555,3973.5 1866.82311,3973.59324 1861.93485,3974.02432 C1857.03937,3974.45541 1851.35485,3975.22434 1845.54042,3976.57935 C1839.70193,3977.93799 1833.70948,3979.8924 1828.21741,3982.7005 C1822.67602,3985.53403 1817.61455,3989.25031 1813.69336,3994.13997 L1806.00494,3994.13997 L1801.10826,3975.71718 L1736.5,3975.71718 L1758.74374,4110.5 L1836.93424,4110.5 L1819.853,4046.23455 L1816.92173,4035.21164 L1816.47067,4033.51273 C1814.86731,4027.48118 1814.92866,4022.73441 1816.30107,4019.00118 C1817.65906,4015.3079 1820.30767,4012.58456 1823.92575,4010.59503 C1827.52338,4008.61762 1832.0941,4007.35464 1837.32877,4006.58571 C1842.55141,4005.8192 1848.44763,4005.54312 1854.70711,4005.54312 C1854.84303,4005.54312 1854.97894,4005.54312 1855.11486,4005.54312 C1855.25078,4005.54312 1855.3867,4005.54312 1855.52262,4005.54433 C1855.65854,4005.54433 1855.79566,4005.54554 1855.93158,4005.54675 C1856.0687,4005.54675 1856.20582,4005.54796 1856.34294,4005.54917 C1862.79968,4005.59761 1868.91481,4005.86764 1874.60054,4006.6293 C1880.2983,4007.39339 1885.58229,4008.65152 1890.36951,4010.68585 C1895.1868,4012.73108 1899.52658,4015.57067 1903.31065,4019.50249 C1907.13802,4023.48033 1910.42412,4028.60249 1913.08837,4035.21164 L1919.7123,4051.64369 L1943.43431,4110.5 L2023.5,4110.5 Z M1601.70653,3755.8188 L1523.5,3755.8188 L1542.06572,3890.34387 L1606.68722,3890.34387 L1606.00628,3871.9563 L1610.94126,3871.9563 C1615.29275,3875.20863 1620.11344,3878.11168 1625.34197,3880.63764 C1630.52959,3883.14306 1636.13106,3885.28227 1642.08624,3887.02386 C1648.01134,3888.75577 1654.30218,3890.09973 1660.90821,3891.02068 C1667.49621,3891.94042 1674.41384,3892.4432 1681.61659,3892.49396 C1681.7357,3892.49517 1681.8548,3892.49637 1681.9739,3892.49637 C1682.09301,3892.49758 1682.21211,3892.49758 1682.33122,3892.5 C1682.45032,3892.5 1682.56822,3892.5 1682.68853,3892.5 C1682.80643,3892.5 1682.92553,3892.5 1683.04463,3892.5 C1696.17129,3892.5 1708.90575,3891.23218 1720.76317,3888.7461 C1732.71322,3886.24069 1743.86324,3882.47712 1753.6947,3877.47596 C1763.67895,3872.39865 1772.37712,3866.00518 1779.21053,3858.29314 C1786.20516,3850.3986 1791.29894,3841.05979 1793.82538,3830.23924 C1796.45649,3818.9703 1795.93315,3808.61022 1792.63555,3799.34997 C1789.25132,3789.84921 1782.97132,3781.57154 1774.27315,3774.70914 C1765.41377,3767.72104 1754.11938,3762.25578 1740.96145,3758.48859 C1727.67599,3754.68514 1712.61239,3752.64624 1696.42514,3752.50604 C1696.29881,3752.50483 1696.17249,3752.50363 1696.04617,3752.50363 C1695.91865,3752.50242 1695.79353,3752.5 1695.666,3752.5 C1695.53968,3752.5 1695.41216,3752.5 1695.28704,3752.5 C1695.15951,3752.5 1695.03319,3752.5 1694.90807,3752.5 C1686.2087,3752.5 1677.72107,3753.14176 1669.56307,3754.36607 C1661.42914,3755.58675 1653.6453,3757.38272 1646.31863,3759.68751 C1639.03527,3761.9778 1632.2211,3764.76724 1625.97719,3767.98693 C1619.7838,3771.17883 1614.16307,3774.78891 1609.20524,3778.74826 L1602.55469,3778.74826 L1601.70653,3755.8188 Z M1615.58186,3809.95158 C1618.10522,3805.3349 1621.87035,3802.01415 1626.61417,3799.64288 C1631.39057,3797.25721 1637.13359,3795.84499 1643.57896,3795.03099 C1650.0376,3794.21459 1657.17927,3794 1664.74935,3794 C1665.08121,3794 1665.41308,3794.0012 1665.74614,3794.0012 C1666.08042,3794.0024 1666.4147,3794.0036 1666.75018,3794.0048 C1667.08445,3794.00599 1667.41994,3794.00839 1667.75663,3794.01079 C1668.09331,3794.01199 1668.43,3794.01558 1668.7679,3794.01798 C1676.81586,3794.08152 1684.40404,3794.50471 1691.21023,3795.58605 C1697.9959,3796.66379 1703.98028,3798.3925 1708.83512,3801.05989 C1713.65497,3803.7069 1717.33683,3807.26381 1719.56815,3811.99318 C1721.77051,3816.66021 1722.54405,3822.43736 1721.61242,3829.5416 C1720.71941,3836.35333 1718.50981,3841.70249 1715.26842,3845.90318 C1712.06686,3850.05232 1707.83712,3853.10813 1702.83626,3855.34034 C1697.86919,3857.55697 1692.11893,3858.97159 1685.83768,3859.83234 C1679.57333,3860.6907 1672.7599,3861 1665.65926,3861 C1665.50117,3861 1665.34308,3861 1665.1862,3861 C1665.02812,3861 1664.87124,3861 1664.71194,3860.9988 C1664.55506,3860.9976 1664.39697,3860.9976 1664.23889,3860.9964 C1664.07959,3860.9952 1663.92271,3860.99401 1663.76342,3860.99281 C1656.45159,3860.94126 1649.62488,3860.63915 1643.49811,3859.78799 C1637.35685,3858.93442 1631.89862,3857.5246 1627.33582,3855.24563 C1622.74043,3852.95108 1619.0284,3849.7634 1616.41212,3845.34333 C1613.76085,3840.86332 1612.21738,3835.08617 1612.01947,3827.61269 C1611.82518,3820.29865 1613.08988,3814.50952 1615.58186,3809.95158 Z M1653.32587,3975.65613 L1654.0056,3994.0437 L1649.07062,3994.0437 C1644.72032,3990.79137 1639.89842,3987.88832 1634.66868,3985.36236 C1629.47985,3982.85694 1623.87957,3980.71773 1617.92197,3978.97614 C1611.99566,3977.24423 1605.70481,3975.90027 1599.09877,3974.97811 C1592.51197,3974.05958 1585.59673,3973.5568 1578.39636,3973.50483 C1578.27726,3973.50483 1578.15816,3973.50363 1578.03905,3973.50363 C1577.91995,3973.50242 1577.80085,3973.50242 1577.68174,3973.5 C1577.56264,3973.5 1577.44353,3973.5 1577.32443,3973.5 C1577.20533,3973.5 1577.08622,3973.5 1576.96832,3973.5 C1563.84164,3973.5 1551.10596,3974.76782 1539.24852,3977.2539 C1527.29724,3979.75931 1516.1448,3983.52288 1506.31212,3988.52404 C1496.32665,3993.60135 1487.62726,3999.99482 1480.79263,4007.70686 C1473.79679,4015.6014 1468.70179,4024.94021 1466.17415,4035.76197 C1463.54304,4047.03091 1464.06758,4057.38978 1467.36519,4066.65003 C1470.74942,4076.15079 1477.02943,4084.42846 1485.72642,4091.28965 C1494.58581,4098.27896 1505.88022,4103.74301 1519.03817,4107.5102 C1532.32366,4111.31486 1547.38728,4113.35376 1563.57456,4113.49396 C1563.70088,4113.49517 1563.82721,4113.49637 1563.95473,4113.49637 C1564.07985,4113.49758 1564.20738,4113.49758 1564.3337,4113.5 C1564.46002,4113.5 1564.58755,4113.5 1564.71267,4113.5 C1564.84019,4113.5 1564.96651,4113.5 1565.09283,4113.5 C1573.79463,4113.5 1582.28468,4112.85824 1590.44509,4111.63272 C1598.58024,4110.41325 1606.3641,4108.61728 1613.69198,4106.31249 C1620.97656,4104.0222 1627.79074,4101.23276 1634.03587,4098.01307 C1640.22806,4094.81996 1645.8488,4091.21109 1650.80785,4087.25174 L1657.45721,4087.25174 L1658.30657,4110.1812 L1736.5,4110.1812 L1717.93666,3975.65613 L1653.32587,3975.65613 Z M1644.41719,4056.04842 C1641.89385,4060.6651 1638.12997,4063.98585 1633.38499,4066.35712 C1628.60863,4068.74279 1622.86566,4070.15501 1616.42155,4070.96901 C1609.96297,4071.78541 1602.82137,4072 1595.25136,4072 C1594.9195,4072 1594.58643,4071.9988 1594.25337,4071.9988 C1593.9203,4071.9976 1593.58603,4071.9964 1593.25176,4071.9952 C1592.91628,4071.99401 1592.5808,4071.99161 1592.24411,4071.98921 C1591.90742,4071.98681 1591.57074,4071.98442 1591.23285,4071.98202 C1583.18134,4071.91848 1575.59202,4071.49529 1568.78469,4070.41395 C1561.99787,4069.33621 1556.01475,4067.6075 1551.15995,4064.94131 C1546.34136,4062.2931 1542.66074,4058.73619 1540.43065,4054.00682 C1538.22952,4049.33979 1537.45598,4043.56384 1538.3876,4036.4584 C1539.28181,4029.64787 1541.49018,4024.29751 1544.73154,4020.09682 C1547.93308,4015.94768 1552.16398,4012.89187 1557.16359,4010.66086 C1562.13061,4008.44303 1567.88083,4007.02841 1574.16201,4006.16766 C1580.42631,4005.3093 1587.23968,4005 1594.34146,4005 C1594.49834,4005 1594.65642,4005 1594.81451,4005 C1594.9726,4005 1595.12947,4005.0012 1595.28756,4005.0012 C1595.44444,4005.0024 1595.60252,4005.0024 1595.76061,4005.0036 C1595.9199,4005.0048 1596.07799,4005.0048 1596.23728,4005.00719 C1603.54784,4005.05874 1610.37569,4005.36085 1616.5012,4006.21201 C1622.64361,4007.06558 1628.10058,4008.4754 1632.66455,4010.75437 C1637.25869,4013.04892 1640.97189,4016.2366 1643.58694,4020.65667 C1646.23819,4025.13549 1647.78284,4030.91383 1647.98075,4038.38611 C1648.17383,4045.70135 1646.90915,4051.49048 1644.41719,4056.04842 Z M1364.93714,4064 L1348,4111 L1425.77181,4111 L1438,4064 L1364.93714,4064 Z M1346.3683,4037.67483 C1348.85031,4031.59641 1353.02706,4027.05581 1357.95502,4023.64917 C1362.83371,4020.27718 1368.47803,4017.99613 1373.97451,4016.44994 C1379.44455,4014.90972 1384.79199,4014.09242 1389.09254,4013.65867 C1393.38708,4013.22612 1396.64915,4013.17474 1397.94244,4013.17474 C1398.041,4013.17474 1398.12874,4013.17474 1398.20326,4013.17593 C1398.27898,4013.17593 1398.34268,4013.17713 1398.39437,4013.17713 C1398.44485,4013.17832 1398.48331,4013.17832 1398.50975,4013.17952 C1398.53499,4013.17952 1398.54822,4013.17952 1398.54822,4013.17952 L1456.25706,4013.17952 L1465.5,3977.5 L1436.73272,3977.5 C1425.79745,3977.5 1416.31532,3978.60647 1408.20582,3980.27335 C1400.05305,3981.94859 1393.25967,3984.19618 1387.80526,3986.46051 C1382.31118,3988.74036 1378.17409,3991.03695 1375.40121,3992.76954 C1372.61391,3994.5117 1371.21725,3995.67911 1371.21725,3995.67911 L1363.52242,3995.67911 L1370.94922,3977.5 L1306.39771,3977.5 L1238.5,4110.5 L1316.62023,4110.5 L1346.3683,4037.67483 Z M1443.52966,3832.48659 C1445.13302,3838.52051 1445.07167,3843.26723 1443.69806,3847.00044 C1442.34008,3850.69489 1439.69028,3853.41579 1436.07101,3855.4065 C1432.47219,3857.3839 1427.90149,3858.64687 1422.66805,3859.41458 C1417.44663,3860.17987 1411.55163,3860.45596 1405.29339,3860.45596 C1405.15867,3860.45596 1405.02275,3860.45596 1404.88563,3860.45596 C1404.74972,3860.45596 1404.6138,3860.45475 1404.47788,3860.45475 C1404.34076,3860.45475 1404.20484,3860.45354 1404.06772,3860.45232 C1403.9318,3860.45232 1403.79468,3860.45111 1403.65756,3860.4499 C1397.20085,3860.40147 1391.08574,3860.13144 1385.40004,3859.37099 C1379.7011,3858.60812 1374.41834,3857.34879 1369.63114,3855.31569 C1364.81386,3853.27048 1360.47531,3850.43092 1356.69126,3846.49912 C1352.8627,3842.52132 1349.57661,3837.39921 1346.91237,3830.7877 L1340.28847,3814.35579 L1316.56656,3755.5 L1236.5,3755.5 L1277.9947,3837.46339 C1285.06364,3851.42628 1294.39748,3861.69471 1304.53601,3869.31248 C1314.446,3876.7583 1325.27013,3881.7799 1335.61193,3885.18374 C1345.84548,3888.55247 1355.70615,3890.37003 1363.76381,3891.34843 C1371.795,3892.32321 1378.0761,3892.46852 1381.112,3892.46852 C1381.43556,3892.46852 1381.72183,3892.46609 1381.96961,3892.46367 C1382.21739,3892.46125 1382.42668,3892.45883 1382.59507,3892.4552 C1382.76347,3892.45156 1382.89217,3892.44914 1382.97877,3892.44551 C1383.06537,3892.4443 1383.10867,3892.44188 1383.10867,3892.44188 C1383.10867,3892.44188 1383.18445,3892.44551 1383.32879,3892.45156 C1383.47433,3892.45641 1383.68963,3892.46367 1383.96869,3892.47094 C1384.24894,3892.4782 1384.59415,3892.48547 1384.9983,3892.49031 C1385.40364,3892.49637 1385.86913,3892.5 1386.38755,3892.5 C1389.05539,3892.5 1393.16781,3892.40555 1398.05846,3891.97447 C1402.95512,3891.54339 1408.63962,3890.77447 1414.45523,3889.41947 C1420.29489,3888.06084 1426.28852,3886.10645 1431.78177,3883.29837 C1437.32314,3880.46487 1442.38579,3876.7474 1446.30576,3871.859 L1453.99415,3871.859 L1458.89201,3890.28163 L1523.5,3890.28163 L1501.25515,3755.5 L1423.06498,3755.5 L1440.14735,3819.76488 L1443.07741,3830.7877 L1443.52966,3832.48659 Z M1895.06061,3802 L1912,3755 L1834.23101,3755 L1822,3802 L1895.06061,3802 Z M1913.61968,3828.32517 C1911.13767,3834.4024 1906.96092,3838.94419 1902.03536,3842.35083 C1897.15668,3845.72282 1891.51356,3848.00387 1886.01828,3849.55006 C1880.54944,3851.09028 1875.20441,3851.90758 1870.90506,3852.34133 C1866.61052,3852.77388 1863.34965,3852.82526 1862.05636,3852.82526 C1861.9578,3852.82526 1861.87126,3852.82407 1861.79554,3852.82407 C1861.71982,3852.82407 1861.65611,3852.82287 1861.60563,3852.82287 C1861.55395,3852.82168 1861.51549,3852.82168 1861.49025,3852.82048 C1861.4638,3852.82048 1861.45058,3852.82048 1861.45058,3852.82048 L1803.74294,3852.82048 L1794.5,3888.5 L1823.26728,3888.5 C1834.20135,3888.5 1843.68468,3887.39353 1851.79418,3885.72665 C1859.94695,3884.05141 1866.73913,3881.80382 1872.19474,3879.53949 C1877.68882,3877.25964 1881.82591,3874.96305 1884.59758,3873.23046 C1887.38489,3871.4883 1888.78275,3870.32089 1888.78275,3870.32089 L1896.46556,3870.32089 L1889.03996,3888.5 L1953.60108,3888.5 L2021.5,3755.5 L1943.36655,3755.5 L1913.61968,3828.32517 Z M1762,4129.35363 L1797.79774,4344 L1899.52624,4344 L1871.30111,4238.91775 L1866.59693,4221.40584 L1865.87321,4218.70857 C1863.31975,4209.20104 1862.98193,4201.75001 1864.38128,4195.90751 C1865.7626,4190.14527 1868.84263,4185.90892 1873.19697,4182.8164 C1877.52127,4179.74783 1883.12229,4177.79195 1889.59491,4176.60261 C1896.04949,4175.41686 1903.39249,4174.99047 1911.21878,4174.99047 C1911.38709,4174.99047 1911.5578,4174.99047 1911.72731,4174.99047 C1911.89802,4174.99047 1912.06873,4174.99167 1912.23824,4174.99287 C1912.40895,4174.99287 1912.57966,4174.99407 1912.75158,4174.99526 C1912.92229,4174.99646 1913.0942,4174.99766 1913.26491,4174.99886 C1921.34126,4175.07192 1929.01486,4175.48873 1936.20879,4176.66609 C1943.42316,4177.84704 1950.1819,4179.79933 1956.42129,4182.95533 C1962.70877,4186.13409 1968.50575,4190.55608 1973.75934,4196.69561 C1979.08987,4202.92497 1983.90466,4210.97367 1988.15441,4221.40584 L1998.80345,4247.55334 L2038.08516,4344 L2142.2553,4344 L2088.49918,4238.91775 L2079.54043,4221.40584 L2078.16031,4218.70857 C2073.29623,4209.20104 2071.15031,4201.75001 2071.13108,4195.90751 C2071.11304,4190.14527 2073.16519,4185.90892 2076.76937,4182.8164 C2080.3483,4179.74783 2085.47446,4177.79195 2091.65734,4176.60261 C2097.8234,4175.41686 2105.06301,4174.99047 2112.88449,4174.99047 C2113.054,4174.99047 2113.22351,4174.99047 2113.39422,4174.99047 C2113.56493,4174.99047 2113.73444,4174.99167 2113.90515,4174.99287 C2114.07587,4174.99287 2114.24658,4174.99407 2114.41849,4174.99526 C2114.5892,4174.99646 2114.75991,4174.99766 2114.93303,4174.99886 C2123.02981,4175.07192 2130.80681,4175.48873 2138.28806,4176.66609 C2145.78975,4177.84704 2153.02216,4179.79933 2160.02734,4182.95533 C2167.08663,4186.13409 2173.95597,4190.55608 2180.70148,4196.69561 C2187.54317,4202.92497 2194.31273,4210.97367 2201.09671,4221.40584 L2218.09935,4247.55334 L2280.81422,4344 L2385,4344 L2284.54824,4210.87067 C2268.05293,4189.00982 2250.22078,4173.07771 2232.57617,4161.33643 C2215.42326,4149.92452 2198.1345,4142.26388 2182.26313,4137.08493 C2166.59854,4131.97424 2152.12772,4129.22068 2140.52414,4127.74149 C2128.96264,4126.26709 2120.1734,4126.04791 2115.94768,4126.04791 C2115.49566,4126.04791 2115.09773,4126.0503 2114.7527,4126.0539 C2114.40887,4126.05749 2114.11794,4126.06228 2113.88472,4126.06707 C2113.65029,4126.07186 2113.47236,4126.07785 2113.35335,4126.08145 C2113.23433,4126.08504 2113.17302,4126.08743 2113.17302,4126.08743 C2113.17302,4126.08743 2113.06482,4126.08145 2112.85684,4126.07306 C2112.64766,4126.06587 2112.33749,4126.0539 2111.93596,4126.04312 C2111.53443,4126.03234 2111.04153,4126.02156 2110.46327,4126.01317 C2109.88622,4126.00599 2109.22381,4126 2108.48566,4126 C2104.71197,4126 2098.94986,4126.14253 2092.28729,4126.79409 C2085.61391,4127.44565 2078.01845,4128.60864 2070.56965,4130.65795 C2063.08118,4132.71803 2055.70812,4135.6812 2049.51201,4139.94749 C2043.24858,4144.25929 2038.14887,4149.93051 2035.3177,4157.41269 L2030.99822,4157.41269 L2030.9886,4157.42227 C2021.20154,4149.82631 2011.13917,4144.10359 2001.39659,4139.77621 C1991.75859,4135.49555 1982.36825,4132.55155 1973.83748,4130.525 C1965.35119,4128.50923 1957.67518,4127.39056 1951.44901,4126.77493 C1945.23247,4126.16169 1940.44412,4126.04791 1937.74881,4126.04791 C1937.35328,4126.04791 1937.00224,4126.0503 1936.69809,4126.0539 C1936.39393,4126.05749 1936.13907,4126.06228 1935.93229,4126.06707 C1935.72551,4126.07186 1935.56802,4126.07785 1935.46223,4126.08145 C1935.35644,4126.08504 1935.30354,4126.08743 1935.30354,4126.08743 C1935.30354,4126.08743 1935.20977,4126.08145 1935.02944,4126.07306 C1934.84911,4126.06587 1934.58102,4126.0539 1934.23359,4126.04312 C1933.88495,4126.03234 1933.45697,4126.02156 1932.95445,4126.01317 C1932.45073,4126.00599 1931.87488,4126 1931.23051,4126 C1927.93289,4126 1922.85963,4126.14253 1916.86669,4126.79409 C1910.86173,4127.44565 1903.91785,4128.60864 1896.86698,4130.65795 C1889.77884,4132.71803 1882.55005,4135.6812 1876.00771,4139.94749 C1869.39323,4144.25929 1863.43395,4149.93051 1858.97982,4157.41269 L1849.40915,4157.41269 L1841.8726,4129.35363 L1762,4129.35363 Z" id="Stroke-1-Copy" transform="translate(1630.000000, 3933.000000) rotate(360.000000) translate(-1630.000000, -3933.000000) "></path>
        </g>
    </g>
</svg>