<?xml version="1.0" encoding="UTF-8"?>
<svg width="606px" height="653px" viewBox="0 0 606 653" version="1.1" xmlns="http://www.w3.org/2000/svg" xmlns:xlink="http://www.w3.org/1999/xlink">
    <title>Artboard</title>
    <g id="Artboard" stroke="none" stroke-width="1" fill="none" fill-rule="evenodd" opacity="0.337992932">
        <path d="M776.285181,326.5 L776.285181,326.5 L873,219.983272 L825.978779,219.983272 L814.930452,233.685616 L810.924059,233.685616 C809.763666,231.319556 808.044057,229.162947 805.787658,227.254788 C803.512449,225.330739 800.696833,223.664531 797.369747,222.295163 C794.023128,220.917851 790.166487,219.845324 785.835994,219.115861 C781.491756,218.38351 776.683795,218 771.452624,218 C771.377386,218 771.300702,218 771.224741,218 C771.148057,218 771.072819,218 770.996135,218 C770.920174,218 770.84349,218 770.767529,218 C770.690845,218 770.61416,218.002889 770.537476,218.003611 C760.739972,218.087391 750.744969,219.305811 741.006786,221.578701 C731.363374,223.829924 722.059253,227.095895 713.519805,231.271889 C705.135896,235.372769 697.555002,240.319393 691.154033,245.996925 C684.914391,251.53073 679.838035,257.721774 676.241107,264.455943 C672.78742,270.922161 671.559024,276.50219 672.13705,281.219864 C672.702777,285.82848 674.996072,289.649131 678.66679,292.683985 C682.281081,295.671893 687.256879,297.92095 693.291789,299.418876 C699.279675,300.904524 706.354887,301.662155 714.247582,301.662155 C714.319203,301.662155 714.390823,301.662155 714.462443,301.661432 C714.534063,301.661432 714.605684,301.661432 714.677304,301.661432 C714.748924,301.66071 714.820544,301.66071 714.892165,301.659988 C714.963785,301.659988 715.036129,301.659266 715.108472,301.658543 C719.461391,301.628209 723.851929,301.327757 728.235233,300.778132 C732.631558,300.227785 737.031501,299.424654 741.390931,298.389684 C745.773511,297.348935 750.124983,296.07057 754.396878,294.573366 C758.70205,293.063883 762.936326,291.329062 767.046894,289.385513 L770.014431,289.385513 L740.086574,326.5 L740.086574,326.5 L770.015155,363.614487 L767.047617,363.614487 C762.936326,361.670938 758.702774,359.936117 754.397601,358.426634 C750.125707,356.92943 745.774235,355.651065 741.391654,354.610316 C737.032224,353.575346 732.631558,352.772215 728.235956,352.221145 C723.851929,351.672243 719.462115,351.371791 715.109196,351.340734 C715.037575,351.340734 714.965232,351.340012 714.893611,351.340012 C714.821268,351.33929 714.749648,351.33929 714.678027,351.338568 C714.605684,351.338568 714.534063,351.338568 714.462443,351.338568 C714.390823,351.337845 714.319203,351.337845 714.248306,351.337845 C706.354887,351.337845 699.278952,352.095476 693.291065,353.581124 C687.256156,355.078328 682.279634,357.327385 678.666067,360.316015 C674.995349,363.350147 672.702054,367.170798 672.13705,371.779414 C671.559024,376.497088 672.78742,382.077839 676.24183,388.544779 C679.838758,395.278948 684.915114,401.46927 691.154756,407.003075 C697.556449,412.680607 705.136619,417.627231 713.520528,421.727389 C722.0607,425.904105 731.364097,429.169354 741.006786,431.420577 C750.744969,433.694189 760.739972,434.912609 770.537476,434.996389 C770.61416,434.997111 770.690845,435 770.767529,435 C770.844213,435 770.920174,435 770.996859,435 C771.072819,435 771.149504,435 771.225465,435 C771.301425,435 771.377386,435 771.453347,435 C776.684519,435 781.493203,434.61649 785.837441,433.884139 C790.167934,433.155398 794.023852,432.082149 797.371194,430.704837 C800.69828,429.336191 803.513896,427.669261 805.789104,425.745212 C808.04478,423.837053 809.76439,421.680444 810.924782,419.314384 L814.930452,419.314384 L825.980225,433.016728 L873,433.016728 L776.285181,326.5 Z M775.800509,273.652734 C772.167228,276.291583 768.447459,278.194675 764.611401,279.564558 C760.802961,280.925136 756.859336,281.766819 752.763083,282.27641 C748.677006,282.784569 744.425217,282.96493 739.996816,282.995706 C739.900878,282.996421 739.80494,282.997137 739.709729,282.997853 C739.613792,282.998569 739.517854,282.998569 739.422643,282.999284 C739.327432,282.999284 739.231494,283 739.13701,283 C739.041799,283 738.946588,283 738.851377,283 C734.572697,283 730.613083,282.815345 727.23927,282.302891 C723.856736,281.789007 721.052009,280.94446 719.092553,279.621099 C717.12074,278.28915 715.995652,276.464787 716,273.98769 C716.003647,271.479101 717.165075,268.285571 719.79755,264.218866 C722.544133,259.977526 725.699178,256.528486 729.197273,253.742199 C732.741157,250.918695 736.614282,248.795162 740.748329,247.214858 C744.912901,245.622388 749.320952,244.590324 753.909249,243.946894 C758.510629,243.301317 763.276993,243.048669 768.153831,243.010736 C768.358062,243.009304 768.562293,243.007873 768.766524,243.006441 C768.970029,243.00501 769.172806,243.004294 769.375584,243.002863 C769.578362,243.002147 769.780412,243.001431 769.981736,243.000716 C770.18306,243.000716 770.382931,243 770.582801,243 C775.142027,243 779.345119,243.127398 782.85557,243.614801 C786.358753,244.101489 789.1613,244.943888 790.928154,246.368881 C792.682653,247.783853 793.405093,249.76639 792.77641,252.522617 C792.154995,255.244489 790.221703,258.700687 786.70035,263.067277 C783.102683,267.529058 779.482485,270.978099 775.800509,273.652734 Z M786.700839,389.932007 C790.223052,394.299313 792.15569,397.755511 792.776402,400.476668 C793.405109,403.232894 792.682641,405.215431 790.928076,406.631119 C789.161882,408.055397 786.359229,408.898511 782.855914,409.384483 C779.344603,409.871887 775.142805,410 770.582681,410 C770.383529,410 770.182925,409.999284 769.981593,409.999284 C769.780261,409.998569 769.578203,409.997853 769.376145,409.997137 C769.173359,409.996421 768.970574,409.99499 768.767062,409.993559 C768.56355,409.992127 768.359311,409.990696 768.153618,409.989264 C763.277323,409.951331 758.510779,409.698683 753.908498,409.053106 C749.320027,408.409676 744.912537,407.377612 740.747807,405.785857 C736.613604,404.204838 732.740333,402.081305 729.195588,399.257801 C725.69736,396.471514 722.542196,393.023189 719.796236,388.781134 C717.163662,384.715145 716.002916,381.520899 716,379.013026 C715.996375,376.535929 717.122233,374.711566 719.094846,373.379616 C721.054377,372.05554 723.859937,371.210993 727.241872,370.697109 C730.615085,370.184655 734.574122,370 738.850783,370 C738.945998,370 739.041213,370 739.136427,370 C739.231642,370 739.326856,370.000716 739.422071,370.000716 C739.517285,370.001431 739.6125,370.001431 739.708441,370.002147 C739.804383,370.002863 739.899597,370.002863 739.996266,370.004294 C744.424834,370.03507 748.676784,370.215431 752.763016,370.72359 C756.859424,371.233181 760.802471,372.074864 764.611781,373.435442 C768.447257,374.805325 772.167894,376.708417 775.801312,379.347266 C779.483428,382.021185 783.103036,385.470942 786.700839,389.932007 Z M753.936393,54.5744681 L780,0 L726.163045,0 C706.260859,0 690.236829,0.760602113 677.072479,2.99319728 C663.993363,5.21131857 653.849049,8.86380084 645.645618,14.5976263 C637.580873,20.2344768 631.491684,27.8144449 626.412304,37.8484585 C621.485334,47.5799682 617.581896,59.4738747 613.801254,73.8522217 L578,210 L625.976743,210 L673.202269,80.3321754 C674.933679,75.5775076 676.878174,71.5870604 679.037922,68.2747141 C681.220784,64.9276306 683.613121,62.2890433 686.217098,60.257635 C688.837688,58.2132002 691.661252,56.7933131 694.690677,55.8829064 C697.728049,54.9703286 700.961892,54.5744681 704.395097,54.5744681 L753.936393,54.5744681 Z M576.978002,153.731174 C579.520301,142.889402 579.620141,132.840083 577.531462,123.789472 C575.373329,114.437078 570.898623,106.233922 564.454611,99.3927715 C557.855052,92.3873411 549.260142,86.884315 539.114821,83.0769214 C528.839273,79.2203162 517.095067,77.1483588 504.413235,77.0065133 C504.314118,77.0050659 504.215726,77.0043422 504.115886,77.0036185 C504.016769,77.0028948 503.916929,77.0021711 503.817813,77.0014474 C503.718697,77.0014474 503.61958,77 503.520464,77 C503.421348,77 503.322231,77 503.223115,77 C496.405065,77 489.745457,77.6527787 483.338343,78.8960979 C476.957274,80.1343512 470.852573,81.9537367 465.110334,84.2855029 C459.412227,86.5999003 454.091052,89.4122043 449.224221,92.6514921 C444.40948,95.8560423 440.05487,99.4702076 436.227675,103.423789 L431.069283,103.423789 L430.211962,80.3630408 L369,80.3630408 L386.971898,210.032255 L435.033215,210.032255 L434.402342,193.076653 L438.097864,193.076653 C441.370152,196.092317 444.983921,198.778697 448.893592,201.110463 C452.765642,203.419795 456.938658,205.387539 461.372127,206.986919 C465.775209,208.576168 470.447425,209.807184 475.354048,210.650296 C480.242584,211.491238 485.378549,211.950064 490.73011,211.995657 C490.819821,211.996381 490.909532,211.997105 490.999243,211.997829 C491.089678,211.998552 491.179389,211.998552 491.2691,212 C491.358812,212 491.448523,212 491.538234,212 C491.627945,212 491.717656,212 491.807367,212 C501.560564,212 511.049692,210.841354 519.92531,208.563865 C528.887023,206.263942 537.309021,202.801754 544.812204,198.186709 C552.459358,193.48265 559.224594,187.535994 564.674548,180.322138 C570.285114,172.896237 574.557247,164.054776 576.978002,153.731174 Z M521.542535,153.891354 C520.692939,160.475285 518.898947,165.62143 516.365956,169.646798 C513.872466,173.610504 510.642849,176.520172 506.863114,178.640581 C503.114978,180.74358 498.803077,182.083435 494.10911,182.896633 C489.430942,183.70838 484.354907,184 479.06773,184 C478.953541,184 478.839351,184 478.724444,184 C478.610255,183.999275 478.496066,183.999275 478.381158,183.998549 C478.266969,183.997824 478.152062,183.997098 478.037154,183.996373 C477.922247,183.995647 477.807339,183.994922 477.692432,183.993471 C472.253002,183.942692 467.17625,183.657601 462.620889,182.850931 C458.051883,182.042811 453.989188,180.706583 450.587211,178.5441 C447.157225,176.363481 444.376465,173.327589 442.404367,169.104182 C440.399233,164.811134 439.211377,159.250773 439.023216,152.021941 C438.837928,144.903374 439.766524,139.242179 441.636642,134.768501 C443.538359,130.22083 446.395963,126.941196 450.009801,124.595181 C453.653084,122.229579 458.041829,120.829515 462.967048,120.021394 C467.907348,119.211098 473.366886,119 479.151756,119 C479.400243,119 479.648731,119 479.897936,119.000725 C480.146423,119.001451 480.396347,119.002902 480.64627,119.004353 C480.896194,119.005803 481.146836,119.007254 481.398196,119.00943 C481.649556,119.011607 481.901634,119.013783 482.15443,119.016685 C488.295513,119.081973 494.079665,119.504168 499.254089,120.579969 C504.408404,121.652143 508.932883,123.368492 512.570421,126.01048 C516.174205,128.627803 518.883865,132.13667 520.455224,136.7859 C522,141.35751 522.432349,146.993315 521.542535,153.891354 Z M374,209.984748 L352.510542,81 L291.440672,81 L308.384838,144.145754 L311.208144,154.668967 L311.64261,156.289085 C313.176231,162.003044 313.378308,166.480501 312.537523,169.991358 C311.708285,173.453992 309.857836,175.999687 307.243102,177.858037 C304.647133,179.701992 301.283992,180.877316 297.39906,181.59201 C293.524953,182.304546 289.116785,182.56149 284.420657,182.56149 C284.319618,182.56149 284.217136,182.56149 284.115376,182.560771 C284.012894,182.560771 283.910412,182.560051 283.808652,182.560051 C283.70617,182.559331 283.603688,182.558612 283.501206,182.557892 C283.398724,182.557172 283.29552,182.556452 283.192317,182.555013 C278.344631,182.511829 273.737273,182.261362 269.418596,181.553865 C265.08765,180.844208 261.030231,179.671044 257.284587,177.774548 C253.510075,175.864377 250.03074,173.207124 246.876172,169.517774 C243.676136,165.774443 240.785712,160.937839 238.234488,154.668967 L231.841634,138.956481 L208.259956,81 L145.725027,81 L177.996021,144.145754 L183.374159,154.668967 L184.201954,156.289085 C187.121968,162.003044 188.410931,166.480501 188.422479,169.991358 C188.433304,173.453992 187.200634,175.999687 185.036243,177.858037 C182.887731,179.701992 179.808941,180.877316 176.096496,181.59201 C172.394155,182.304546 168.04661,182.56149 163.349038,182.56149 C163.247278,182.56149 163.145518,182.56149 163.043036,182.560771 C162.940554,182.560771 162.838072,182.560051 162.73559,182.560051 C162.633108,182.559331 162.530626,182.558612 162.428144,182.557892 C162.32494,182.557172 162.221737,182.556452 162.118533,182.555013 C157.260022,182.511829 152.59204,182.261362 148.101598,181.553865 C143.598165,180.844208 139.256394,179.671044 135.050303,177.774548 C130.812457,175.864377 126.687919,173.207124 122.637716,169.517774 C118.529055,165.774443 114.464418,160.937839 110.391843,154.668967 L110.400503,154.668967 L100.193444,138.956481 L62.5443115,81 L0,81 L60.3034206,160.999736 C70.2059211,174.136299 80.9109564,183.710904 91.5034059,190.765724 C101.799957,197.623338 112.179504,202.227469 121.706718,205.338873 C131.111243,208.409973 139.798394,210.064639 146.764281,210.953509 C153.704186,211.8395 158.981286,211.97193 161.518075,211.97193 C161.788714,211.97193 162.02832,211.970491 162.234727,211.968332 C162.441857,211.965453 162.616509,211.962574 162.756519,211.959695 C162.897252,211.956816 163.003342,211.953937 163.075513,211.951058 C163.146961,211.948899 163.183047,211.94746 163.183047,211.94746 C163.183047,211.94746 163.248,211.951058 163.373576,211.955377 C163.499153,211.960415 163.684631,211.966892 163.92568,211.97337 C164.167451,211.980567 164.463349,211.987045 164.810489,211.991363 C165.157629,211.996401 165.554566,212 165.99697,212 C168.262399,212 171.722248,211.914352 175.72121,211.522817 C179.728111,211.131283 184.287836,210.431702 188.759514,209.200959 C193.254287,207.963019 197.681219,206.1824 201.400881,203.618712 C205.160238,201.027674 208.222428,197.619739 209.922041,193.123569 L212.515123,193.123569 L212.512236,193.117811 C218.389793,197.682356 224.431178,201.121239 230.280588,203.721634 C236.066489,206.293959 241.703719,208.062342 246.824931,209.28085 C251.919439,210.49216 256.526798,211.16439 260.264503,211.534333 C263.995712,211.902836 266.868816,211.971211 268.486876,211.971211 C268.724317,211.971211 268.935054,211.969771 269.117645,211.967612 C269.299515,211.965453 269.453238,211.962574 269.577371,211.959695 C269.701504,211.956096 269.796047,211.953217 269.858835,211.951058 C269.922345,211.948899 269.954822,211.94746 269.954822,211.94746 C269.954822,211.94746 270.011115,211.951058 270.119371,211.955377 C270.227626,211.960415 270.388566,211.966892 270.597139,211.97337 C270.806433,211.980567 271.063359,211.987045 271.365753,211.991363 C271.667426,211.996401 272.013122,212 272.399955,212 C274.381033,212 277.426624,211.914352 281.02504,211.522817 C284.630673,211.131283 288.799957,210.431702 293.033472,209.200959 C297.290083,207.963019 301.629689,206.1824 305.558645,203.618712 C309.529461,201.027674 313.106947,197.619739 315.781582,193.123569 L321.526346,193.123569 L326.05143,209.984748 L374,209.984748 Z M129.715144,326.5 L129.715144,326.5 L33,433.016728 L80.0206561,433.016728 L91.0704668,419.314384 L95.068192,419.314384 C96.2300354,421.680444 97.9510973,423.837053 100.207504,425.745212 C102.483444,427.669261 105.29907,429.335469 108.626167,430.704837 C111.97352,432.082149 115.829451,433.154676 120.160682,433.884139 C124.504934,434.61649 129.313635,435 134.546994,435 C134.622955,435 134.698916,435 134.774877,435 C134.851562,435 134.927523,435 135.003484,435 C135.080169,435 135.156853,435 135.232815,435 C135.309499,435 135.386184,434.997111 135.462868,434.996389 C145.260406,434.912609 155.255442,433.694189 164.993657,431.420577 C174.636379,429.169354 183.940531,425.904105 192.480007,421.727389 C200.864668,417.627231 208.444864,412.680607 214.846578,407.003075 C221.085518,401.46927 226.161891,395.278948 229.759554,388.544779 C233.213253,382.078561 234.44093,376.49781 233.862902,371.780136 C233.297896,367.17152 231.00387,363.350869 227.333863,360.316015 C223.71956,357.328107 218.743022,355.07905 212.708092,353.581124 C206.720909,352.095476 199.645673,351.337845 191.752951,351.337845 C191.680607,351.337845 191.608987,351.337845 191.53809,351.338568 C191.466469,351.338568 191.394849,351.338568 191.323228,351.338568 C191.251608,351.33929 191.179987,351.33929 191.108367,351.340012 C191.036023,351.340012 190.964402,351.340734 190.891335,351.340734 C186.538401,351.371791 182.148572,351.672243 177.76453,352.221145 C173.368913,352.772215 168.968233,353.575346 164.608788,354.610316 C160.226193,355.651065 155.874706,356.92943 151.602797,358.426634 C147.297611,359.936117 143.064044,361.670938 138.952739,363.614487 L135.985191,363.614487 L165.913872,326.5 L165.913149,326.5 L135.985191,289.385513 L138.952739,289.385513 C143.063321,291.329062 147.296887,293.063883 151.602074,294.573366 C155.873983,296.07057 160.226193,297.348935 164.608788,298.389684 C168.967509,299.424654 173.36819,300.227785 177.76453,300.778132 C182.147848,301.327757 186.538401,301.628209 190.890612,301.658543 C190.962955,301.659266 191.034576,301.659988 191.10692,301.659988 C191.17854,301.66071 191.250884,301.66071 191.322505,301.661432 C191.394125,301.661432 191.465746,301.661432 191.537366,301.661432 C191.608987,301.662155 191.680607,301.662155 191.752228,301.662155 C199.645673,301.662155 206.721632,300.904524 212.709539,299.418876 C218.743745,297.921672 223.720284,295.672615 227.334586,292.683985 C231.004593,289.649853 233.298619,285.829202 233.862902,281.220586 C234.44093,276.502912 233.21253,270.922161 229.758831,264.455943 C226.161891,257.721774 221.084795,251.53073 214.845855,245.996925 C208.444141,240.319393 200.863945,235.372769 192.479284,231.271889 C183.939807,227.095895 174.636379,223.829924 164.992934,221.578701 C155.254719,219.305811 145.259682,218.087391 135.462145,218.003611 C135.38546,218.002889 135.308776,218 135.232815,218 C135.15613,218 135.079445,218 135.003484,218 C134.9268,218 134.850115,218 134.774154,218 C134.698193,218 134.622232,218 134.546271,218 C129.312911,218 124.504211,218.38351 120.159235,219.115139 C115.828004,219.844602 111.972073,220.917851 108.62472,222.295163 C105.298346,223.663809 102.482721,225.330739 100.206781,227.254788 C97.9503739,229.162225 96.2300354,231.319556 95.068192,233.685616 L91.06902,233.685616 L80.0199326,219.983272 L33,219.983272 L129.715144,326.5 Z M130.20006,379.347266 C133.83335,376.708417 137.553857,374.805325 141.389199,373.435442 C145.198375,372.074864 149.141284,371.233181 153.238275,370.72359 C157.323637,370.215431 161.576163,370.03507 166.00385,370.004294 C166.099788,370.002863 166.195726,370.002863 166.291664,370.002147 C166.386875,370.001431 166.482813,370.001431 166.578024,370.000716 C166.673236,370.000716 166.769174,370 166.864385,370 C166.959596,370 167.054081,370 167.149292,370 C171.42653,370 175.385428,370.184655 178.758523,370.697109 C182.141066,371.210993 184.946527,372.05554 186.905989,373.378901 C188.877807,374.71085 190.003625,376.535213 190,379.013026 C189.997084,381.520899 188.836379,384.714429 186.20317,388.781134 C183.457307,393.023189 180.302253,396.471514 176.804148,399.257801 C173.259528,402.081305 169.386393,404.204838 165.253062,405.785857 C161.087751,407.377612 156.680416,408.409676 152.092106,409.053106 C147.489986,409.698683 142.724336,409.951331 137.847486,409.989264 C137.642527,409.990696 137.438295,409.992127 137.23479,409.993559 C137.030559,409.99499 136.827054,409.996421 136.624275,409.997137 C136.422224,409.997853 136.220173,409.998569 136.018848,409.999284 C135.817524,409.999284 135.616926,410 135.417782,410 C130.856364,410 126.653259,409.871887 123.142072,409.385199 C119.63888,408.898511 116.836326,408.056112 115.070193,406.631119 C113.316417,405.216147 112.594701,403.23361 113.224113,400.477383 C113.84553,397.755511 115.778827,394.299313 119.300916,389.932007 C122.898593,385.470942 126.518801,382.021185 130.20006,379.347266 Z M119.300249,263.067277 C115.778853,258.700687 113.845538,255.244489 113.224115,252.523332 C112.594697,249.767106 113.31642,247.784569 115.070213,246.368881 C116.835635,244.944603 119.637489,244.101489 123.139261,243.615517 C126.649754,243.128113 130.851444,243 135.410725,243 C135.610598,243 135.811198,243.000716 136.012524,243.000716 C136.213124,243.001431 136.415177,243.002147 136.617957,243.002863 C136.82001,243.003579 137.02279,243.00501 137.227024,243.006441 C137.430531,243.007157 137.634765,243.009304 137.839725,243.010736 C142.718076,243.048669 147.485951,243.301317 152.088841,243.946894 C156.678647,244.590324 161.086752,245.622388 165.251375,247.214858 C169.386198,248.795162 173.260097,250.918695 176.804024,253.742199 C180.302162,256.528486 183.457245,259.977526 186.203861,264.218866 C188.836368,268.285571 189.996357,271.479101 190,273.986974 C190.003625,276.464071 188.877796,278.288434 186.905233,279.621099 C184.945753,280.94446 182.140265,281.789007 178.758417,282.302891 C175.38529,282.815345 171.426355,283 167.149076,283 C167.053864,283 166.958652,283 166.864167,283 C166.768954,283 166.673742,283 166.57853,282.999284 C166.482591,282.998569 166.387379,282.998569 166.292167,282.997853 C166.196228,282.997137 166.100289,282.996421 166.003623,282.995706 C161.575895,282.96493 157.324055,282.784569 153.237928,282.27641 C149.141625,281.766819 145.197952,280.925136 141.38874,279.564558 C137.553362,278.194675 133.833547,276.291583 130.200222,273.652734 C126.518202,270.978099 122.89796,267.529058 119.300249,263.067277 Z M152.064237,598.42572 L126,653 L179.825928,653 C199.728043,653 215.752737,652.239401 228.917763,650.006813 C241.997554,647.789423 252.143999,644.136953 260.348123,638.403871 C268.414283,632.76704 274.504895,625.187822 279.58498,615.156014 C284.511933,605.425985 288.415356,593.532844 292.195985,579.156717 L328,443 L280.015483,443 L232.788682,572.668101 C231.056556,577.422753 229.112789,581.413186 226.953771,584.724797 C224.770917,588.072593 222.379312,590.711171 219.776788,592.742573 C217.15693,594.786277 214.333376,596.206883 211.303961,597.116563 C208.265879,598.029861 205.030602,598.42572 201.59452,598.42572 L152.064237,598.42572 Z M329.022115,499.268102 C326.479809,510.110598 326.379968,520.159917 328.46793,529.209804 C330.626069,538.562922 335.100788,546.766078 341.544819,553.607228 C348.143674,560.612659 356.739332,566.115685 366.884683,569.923802 C377.16026,573.779684 388.903777,575.851641 401.58637,575.993487 C401.684763,575.994934 401.78388,575.995658 401.88372,575.996381 C401.982837,575.997105 402.081954,575.997829 402.181794,575.998553 C402.28091,576 402.380027,576 402.479144,576 C402.57826,576 402.677377,576 402.776494,576 C409.596734,576 416.258531,575.347221 422.667112,574.103902 C429.049646,572.866373 435.155812,571.046987 440.898068,568.714497 C446.596914,566.4001 451.918829,563.588519 456.785674,560.348508 C461.599706,557.143958 465.954328,553.530516 469.782257,549.576935 L474.940665,549.576935 L475.797988,572.636959 L537,572.636959 L519.03022,442.967021 L470.976722,442.967021 L471.606872,459.923347 L467.91134,459.923347 C464.639766,456.907683 461.025263,454.221303 457.114857,451.89026 C453.242072,449.580205 449.06832,447.612461 444.634838,446.013081 C440.23102,444.423832 435.558067,443.192816 430.652153,442.349704 C425.764327,441.508762 420.62907,441.049936 415.27894,441.004343 C415.189229,441.003619 415.099518,441.002895 415.009806,441.002171 C414.920095,441.001448 414.830383,441.001448 414.740672,441 C414.650237,441 414.560525,441 414.471537,441 C414.381826,441 414.292115,441 414.202403,441 C404.449178,441 394.959299,442.158646 386.082931,444.436135 C377.119746,446.736058 368.696276,450.198246 361.193071,454.812567 C353.544448,459.51735 346.778469,465.464006 341.327775,472.677138 C335.716469,480.103039 331.442877,488.945224 329.022115,499.268102 Z M384.457344,500.109371 C385.307659,493.524715 387.10165,488.379295 389.63392,484.353202 C392.12741,480.389496 395.357024,477.479828 399.137476,475.359419 C402.88561,473.25642 407.197508,471.916565 411.890755,471.103367 C416.56892,470.292345 421.64567,470 426.932844,470 C427.046315,470 427.161223,470 427.27613,470 C427.390319,470 427.504508,470.000725 427.618698,470.001451 C427.733605,470.001451 427.847794,470.002902 427.96342,470.003627 C428.077609,470.004353 428.192516,470.005078 428.308142,470.005803 C433.74685,470.057308 438.824318,470.342399 443.378958,471.148343 C447.94868,471.957189 452.010654,473.293417 455.411912,475.4559 C458.843332,477.636519 461.62409,480.673136 463.596187,484.895818 C465.60132,489.189592 466.788457,494.749953 466.976618,501.978059 C467.162624,509.096626 466.234029,514.757821 464.363912,519.231499 C462.461477,523.77917 459.604593,527.058804 455.990757,529.404819 C452.346758,531.770421 447.958734,533.170485 443.0328,533.978606 C438.09322,534.788902 432.632967,535 426.8481,535 C426.600331,535 426.351126,535 426.102639,534.999275 C425.853433,534.998549 425.604228,534.997098 425.354305,534.995647 C425.103663,534.994197 424.853021,534.992746 424.601662,534.99057 C424.350302,534.988393 424.098942,534.986217 423.846146,534.983315 C417.702912,534.918027 411.917327,534.495832 406.742906,533.420031 C401.587875,532.347857 397.063398,530.631508 393.426581,527.98952 C389.822799,525.372197 387.114577,521.86333 385.543937,517.2141 C383.999151,512.64249 383.568249,507.006685 384.457344,500.109371 Z M689,433 L664.131992,383.941187 C659.896256,375.583765 654.301711,369.437643 648.225636,364.87806 C642.285081,360.421397 635.798119,357.41574 629.599499,355.378387 C623.465755,353.362053 617.555476,352.274161 612.726478,351.68854 C607.911897,351.105093 604.146878,351.018119 602.327444,351.018119 C602.133534,351.018119 601.961971,351.018844 601.813475,351.021019 C601.664979,351.022468 601.539551,351.023918 601.438631,351.026092 C601.336991,351.028266 601.259859,351.029716 601.208679,351.031165 C601.156777,351.032615 601.130106,351.034065 601.130106,351.034065 C601.130106,351.034065 601.085413,351.03189 600.99891,351.028266 C600.911687,351.025367 600.782654,351.021019 600.615416,351.01667 C600.447457,351.012321 600.240572,351.007973 599.997645,351.005073 C599.755438,351.002174 599.477188,351 599.16578,351 C597.567647,351 595.103049,351.055808 592.173499,351.313829 C589.239625,351.57185 585.832871,352.032085 582.348265,352.843112 C578.849241,353.656314 575.257948,354.826106 571.966531,356.506868 C568.645558,358.20285 565.612206,360.427195 563.262223,363.353851 L558.654527,363.353851 L555.719932,352.32707 L517,352.32707 L530.330746,433 L577.190557,433 L566.953714,394.534551 L565.196994,387.936891 L564.926674,386.920027 C563.965776,383.309905 564.00254,380.468773 564.825034,378.23428 C565.638877,376.023706 567.226197,374.393679 569.394525,373.202867 C571.550598,372.019304 574.289842,371.26336 577.426997,370.803125 C580.556943,370.344341 584.090568,370.179091 587.84189,370.179091 C587.923346,370.179091 588.004803,370.179091 588.086259,370.179091 C588.167716,370.179091 588.249172,370.179091 588.330629,370.179816 C588.412085,370.179816 588.494263,370.180541 588.575719,370.181265 C588.657896,370.181265 588.740074,370.18199 588.822251,370.182715 C592.691793,370.211706 596.356613,370.373332 599.764088,370.829217 C603.178772,371.286553 606.345482,372.039598 609.214479,373.257226 C612.101498,374.481377 614.702338,376.180983 616.970143,378.534339 C619.263899,380.915236 621.233272,383.98105 622.829962,387.936891 L626.799703,397.772137 L641.016378,433 L689,433 Z M435.866411,219.991281 L389,219.991281 L400.12578,300.70632 L438.851165,300.70632 L438.443105,289.673783 L441.400463,289.673783 C444.008157,291.62518 446.897025,293.367007 450.030296,294.882585 C453.139055,296.385835 456.495822,297.669363 460.06455,298.714314 C463.615254,299.753464 467.385128,300.559838 471.343893,301.112408 C475.291844,301.664252 479.437336,301.965918 483.753694,301.996374 C483.825069,301.997099 483.896443,301.997825 483.967818,301.997825 C484.039192,301.99855 484.110567,301.99855 484.181942,302 C484.253316,302 484.32397,302 484.396065,302 C484.466719,302 484.538093,302 484.609468,302 C492.47581,302 500.10712,301.23931 507.212854,299.747663 C514.374102,298.244412 521.055914,295.986274 526.94756,292.985575 C532.930766,289.93919 538.143272,286.10311 542.238297,281.475884 C546.429931,276.739159 549.482455,271.135872 550.996461,264.643542 C552.57319,257.882179 552.259574,251.666134 550.283436,246.109982 C548.255389,240.409524 544.492003,235.442924 539.279498,231.325483 C533.970384,227.132626 527.202057,223.853467 519.31697,221.593152 C511.355462,219.311084 502.328383,218.087744 492.627931,218.003626 C492.552231,218.002901 492.476531,218.002175 492.40083,218.002175 C492.324409,218.00145 492.24943,218 492.173009,218 C492.097308,218 492.020887,218 491.945908,218 C491.869486,218 491.793786,218 491.718807,218 C486.50558,218 481.419241,218.385058 476.530445,219.119642 C471.656067,219.852051 466.991487,220.929634 462.60087,222.312508 C458.236207,223.68668 454.152717,225.360343 450.41096,227.292161 C446.699483,229.2073 443.331181,231.373344 440.360124,233.748958 L436.374684,233.748958 L435.866411,219.991281 Z M444.149118,252.523332 C445.663133,249.767106 447.922209,247.784569 450.7685,246.368881 C453.634341,244.944603 457.080156,244.101489 460.947376,243.615517 C464.82256,243.128113 469.107564,243 473.649611,243 C473.848728,243 474.047845,243.000716 474.247687,243.000716 C474.448252,243.001431 474.648817,243.002147 474.850107,243.002863 C475.050672,243.003579 475.251962,243.00501 475.453975,243.006441 C475.655989,243.007157 475.858002,243.009304 476.06074,243.010736 C480.889515,243.048669 485.442422,243.301317 489.526137,243.946894 C493.597542,244.590324 497.18817,245.622388 500.101075,247.214858 C502.992982,248.795162 505.202098,250.918695 506.54089,253.742199 C507.862305,256.528486 508.326429,259.977526 507.767452,264.218866 C507.231646,268.285571 505.905887,271.479101 503.961054,273.986974 C502.040115,276.464071 499.502275,278.288434 496.501758,279.621099 C493.521516,280.94446 490.071356,281.789007 486.302609,282.302891 C482.543999,282.815345 478.45594,283 474.195554,283 C474.100702,283 474.00585,283 473.911721,283 C473.816869,283 473.722741,283 473.627165,282.999284 C473.533037,282.998569 473.438184,282.998569 473.343332,282.997853 C473.247756,282.997137 473.153628,282.996421 473.058051,282.995706 C468.670955,282.96493 464.574931,282.784569 460.898864,282.27641 C457.214108,281.766819 453.939172,280.925136 451.20149,279.564558 C448.444259,278.194675 446.217041,276.291583 444.647273,273.652734 C443.056507,270.978099 442.130431,267.529058 442.011684,263.067277 C441.89511,258.700687 442.653928,255.244489 444.149118,252.523332 Z M467.156679,352.29368 L467.564019,363.326217 L464.606656,363.326217 C461.999677,361.37482 459.110084,359.632993 455.976087,358.117415 C452.866602,356.614165 449.51055,355.330637 445.940373,354.285686 C442.388942,353.246536 438.619061,352.440162 434.66029,351.886867 C430.713053,351.335748 426.568996,351.034082 422.254072,351.002901 C422.182697,351.002901 422.111322,351.002175 422.039948,351.002175 C421.968573,351.00145 421.897198,351.00145 421.825824,351 C421.754449,351 421.683074,351 421.611699,351 C421.540325,351 421.46895,351 421.398296,351 C413.531941,351 405.899896,351.76069 398.79415,353.252337 C391.632169,354.755588 384.948903,357.013726 379.056526,360.014425 C373.072588,363.06081 367.859353,366.89689 363.763599,371.524116 C359.571238,376.260841 356.517987,381.864128 355.003258,388.357183 C353.426526,395.118546 353.740863,401.333866 355.717005,406.890018 C357.745055,412.590476 361.508448,417.557076 366.720241,421.673792 C372.029364,425.867374 378.797703,429.145808 386.682803,431.406122 C394.644325,433.688916 403.67142,434.912256 413.371889,434.996374 C413.447589,434.997099 413.52329,434.997825 413.599711,434.997825 C413.67469,434.99855 413.751112,434.99855 413.826812,435 C413.902513,435 413.978934,435 414.053913,435 C414.130335,435 414.206035,435 414.281736,435 C419.496413,435 424.584203,434.614942 429.47445,433.879633 C434.349557,433.147949 439.014145,432.070366 443.405491,430.687492 C447.770882,429.31332 451.854379,427.639657 455.596864,425.707839 C459.307626,423.791975 462.675935,421.626656 465.647717,419.251042 L469.632443,419.251042 L470.141438,433.008719 L517,433.008719 L505.875643,352.29368 L467.156679,352.29368 Z M461.850313,400.476668 C460.336312,403.232894 458.07798,405.215431 455.230991,406.631119 C452.365177,408.055397 448.919393,408.898511 445.052933,409.384483 C441.177784,409.871887 436.892819,410 432.350815,410 C432.151699,410 431.95186,409.999284 431.75202,409.999284 C431.552181,409.998569 431.351617,409.997853 431.151053,409.997137 C430.949766,409.996421 430.748478,409.99499 430.546466,409.993559 C430.344455,409.992127 430.142443,409.990696 429.939707,409.989264 C425.108804,409.951331 420.555215,409.698683 416.470813,409.053106 C412.398721,408.409676 408.808851,407.377612 405.895972,405.785857 C403.004816,404.204838 400.796444,402.081305 399.458388,399.257801 C398.13771,396.471514 397.67359,393.023189 398.232561,388.781134 C398.769087,384.715145 400.09411,381.520899 402.038925,379.013026 C403.959846,376.535929 406.498387,374.711566 409.498152,373.379616 C412.478367,372.05554 415.928495,371.210993 419.697208,370.697109 C423.455784,370.184655 427.543805,370 431.804876,370 C431.899004,370 431.993855,370 432.088706,370 C432.183558,370 432.277685,370.000716 432.372536,370.000716 C432.466664,370.001431 432.561515,370.001431 432.656366,370.002147 C432.751942,370.002863 432.846793,370.002863 432.942369,370.004294 C437.328701,370.03507 441.425411,370.215431 445.100721,370.72359 C448.786167,371.233181 452.060349,372.074864 454.79873,373.435442 C457.555212,374.805325 459.783133,376.708417 461.352163,379.347266 C462.942914,382.021185 463.869706,385.470942 463.988451,389.932007 C464.1043,394.299313 463.345489,397.755511 461.850313,400.476668 Z M294.162282,405 L284,433 L330.663086,433 L338,405 L294.162282,405 Z M282.625942,389.195388 C284.112961,385.539193 286.615331,382.808008 289.567767,380.758901 C292.490678,378.730637 295.872298,377.358576 299.165344,376.428535 C302.442548,375.502089 305.646301,375.010476 308.222841,374.749575 C310.795781,374.489394 312.75015,374.458489 313.524984,374.458489 C313.584033,374.458489 313.6366,374.458489 313.681247,374.459207 C313.726614,374.459207 313.764779,374.459926 313.795744,374.459926 C313.825988,374.460645 313.849032,374.460645 313.864874,374.461364 C313.879996,374.461364 313.887918,374.461364 313.887918,374.461364 L348.462382,374.461364 L354,353 L336.764975,353 C330.213448,353 324.532529,353.665547 319.673972,354.668179 C314.789491,355.675842 310.71945,357.027779 307.451607,358.389778 C304.160001,359.76112 301.681395,361.142525 300.02011,362.184687 C298.350183,363.2326 297.51342,363.934802 297.51342,363.934802 L292.903299,363.934802 L297.352836,353 L258.678806,353 L218,433 L264.80331,433 L282.625942,389.195388 Z M341.073527,266.079566 C342.034421,269.691106 341.997657,272.532213 341.174446,274.766685 C340.360606,276.977965 338.772572,278.606528 336.603532,279.798054 C334.446747,280.981607 331.707515,281.737544 328.571094,282.19705 C325.441881,282.655106 321.908993,282.820354 318.158407,282.820354 C318.077672,282.820354 317.996216,282.820354 317.914039,282.820354 C317.832582,282.820354 317.751126,282.819629 317.66967,282.819629 C317.587493,282.819629 317.506037,282.818904 317.42386,282.818179 C317.342404,282.818179 317.260227,282.817455 317.17805,282.81673 C313.308524,282.787739 309.64372,282.626115 306.236259,282.170958 C302.820869,281.714351 299.654893,280.960588 296.785907,279.743696 C293.898901,278.519556 291.298793,276.819965 289.030997,274.46663 C286.736529,272.085753 284.767165,269.019967 283.170481,265.06271 L279.200757,255.227552 L264.984141,220 L217,220 L241.867904,269.05838 C246.104343,277.415728 251.698144,283.561796 257.774194,288.121337 C263.713282,292.577962 270.200216,295.583592 276.39809,297.620926 C282.531087,299.637243 288.44062,300.725126 293.269598,301.310742 C298.082718,301.894183 301.846999,301.981156 303.666426,301.981156 C303.860335,301.981156 304.031898,301.979706 304.180393,301.978257 C304.328888,301.976807 304.454316,301.975358 304.555235,301.973183 C304.656154,301.971009 304.733285,301.96956 304.785187,301.967385 C304.837088,301.96666 304.863038,301.965211 304.863038,301.965211 C304.863038,301.965211 304.908452,301.967385 304.994954,301.971009 C305.082177,301.973908 305.211209,301.978257 305.378447,301.982605 C305.546405,301.986954 305.753289,301.991303 305.995495,301.994202 C306.238421,301.997826 306.517391,302 306.828077,302 C308.426924,302 310.891512,301.943468 313.822491,301.685449 C316.757073,301.42743 320.163813,300.9672 323.649126,300.15618 C327.148856,299.342985 330.740854,298.173203 334.032979,296.492456 C337.353938,294.796489 340.387998,292.571439 342.73725,289.645533 L347.344927,289.645533 L350.280231,300.672217 L389,300.672217 L375.668589,220 L328.808975,220 L339.046495,258.465109 L340.802487,265.06271 L341.073527,266.079566 Z M611.836367,248 L622,220 L575.338607,220 L568,248 L611.836367,248 Z M623.366857,263.804612 C621.879838,267.460088 619.377468,270.191992 616.426472,272.241099 C613.503561,274.269363 610.122662,275.641424 606.830336,276.571465 C603.553852,277.497911 600.351539,277.989524 597.775719,278.250425 C595.202779,278.510606 593.24913,278.541511 592.474296,278.541511 C592.415247,278.541511 592.3634,278.540793 592.318033,278.540793 C592.272666,278.540793 592.234501,278.540074 592.204256,278.540074 C592.173291,278.539355 592.150248,278.539355 592.135126,278.538636 C592.119283,278.538636 592.111362,278.538636 592.111362,278.538636 L557.537618,278.538636 L552,300 L569.235025,300 C575.785832,300 581.467471,299.334453 586.326028,298.331821 C591.210509,297.324158 595.27983,295.972221 598.548393,294.610222 C601.839999,293.23888 604.318605,291.857475 605.97917,290.815313 C607.649096,289.7674 608.48658,289.065198 608.48658,289.065198 L613.0895,289.065198 L608.640683,300 L647.320474,300 L688,220 L641.188768,220 L623.366857,263.804612 Z M532,444.015252 L553.490138,573 L614.559891,573 L597.615757,509.854246 L594.791735,499.331033 L594.35727,497.710195 C592.824373,491.996956 592.621575,487.519499 593.461637,484.008642 C594.290873,480.546008 596.139875,478.000313 598.753882,476.141963 C601.349846,474.298008 604.712259,473.122684 608.597906,472.40799 C612.472727,471.695454 616.880886,471.439229 621.57917,471.439229 C621.680209,471.439229 621.78269,471.439229 621.88445,471.439229 C621.986932,471.439229 622.089414,471.439949 622.191174,471.440669 C622.293656,471.440669 622.396138,471.441388 622.499341,471.442108 C622.601823,471.442828 622.705026,471.443548 622.807508,471.444267 C627.655906,471.488171 632.262534,471.738638 636.581202,472.446135 C640.912139,473.155792 644.969551,474.328956 648.715188,476.225452 C652.489693,478.135623 655.969743,480.792876 659.123583,484.482226 C662.323612,488.225557 665.214031,493.062161 667.76525,499.331033 L674.158091,515.043519 L697.739724,573 L760.275254,573 L728.004322,509.854246 L722.626195,499.331033 L721.79768,497.710195 C718.877671,491.996956 717.589432,487.519499 717.577885,484.008642 C717.567059,480.546008 718.799006,478.000313 720.96267,476.141963 C723.111179,474.298008 726.188519,473.122684 729.900235,472.40799 C733.601848,471.695454 737.947941,471.439229 742.643338,471.439229 C742.745098,471.439229 742.846858,471.439229 742.94934,471.439229 C743.051822,471.439229 743.153582,471.439949 743.256064,471.440669 C743.358545,471.440669 743.461027,471.441388 743.564231,471.442108 C743.666712,471.442828 743.769194,471.443548 743.873119,471.444267 C748.733786,471.488171 753.40248,471.738638 757.893636,472.446135 C762.39706,473.155792 766.738823,474.328956 770.944184,476.225452 C775.182022,478.135623 779.30583,480.792876 783.355303,484.482226 C787.462513,488.225557 791.52642,493.062161 795.598988,499.331033 L805.806028,515.043519 L843.455088,573 L906,573 L845.696696,493.000264 C835.794214,479.863701 825.0892,470.289816 814.496771,463.234276 C804.199518,456.376662 793.820713,451.773251 784.292795,448.661127 C774.88901,445.590027 766.201876,443.935361 759.236003,443.046491 C752.295389,442.1605 747.019021,442.028789 744.482236,442.028789 C744.210876,442.028789 743.971993,442.030229 743.764864,442.032388 C743.558457,442.034547 743.383805,442.037426 743.243795,442.040305 C743.103063,442.043184 742.996251,442.046783 742.924802,442.048942 C742.853354,442.051101 742.816547,442.05254 742.816547,442.05254 C742.816547,442.05254 742.751593,442.048942 742.626739,442.043904 C742.501163,442.039585 742.314963,442.032388 742.073915,442.02591 C741.832866,442.019433 741.536968,442.012955 741.189829,442.007917 C740.843412,442.003599 740.445754,442 740.002628,442 C737.737204,442 734.278083,442.085648 730.278407,442.477183 C726.272236,442.868717 721.712519,443.567578 717.24085,444.799041 C712.745364,446.036981 708.319162,447.8176 704.599507,450.381288 C700.839437,452.972326 697.777974,456.380261 696.078365,460.876431 L693.485287,460.876431 L693.479513,460.882189 C687.604133,456.317644 681.563482,452.878761 675.714804,450.278366 C669.928914,447.706041 664.291695,445.936938 659.170494,444.71915 C654.075995,443.50784 649.467924,442.83561 645.730226,442.465667 C641.998302,442.097164 639.12376,442.028789 637.505703,442.028789 C637.268263,442.028789 637.057526,442.030229 636.874935,442.032388 C636.692344,442.034547 636.539343,442.037426 636.415211,442.040305 C636.291078,442.043184 636.196535,442.046783 636.133025,442.048942 C636.069515,442.051101 636.03776,442.05254 636.03776,442.05254 C636.03776,442.05254 635.981467,442.048942 635.873212,442.043904 C635.764957,442.039585 635.604017,442.032388 635.395445,442.02591 C635.186151,442.019433 634.929225,442.012955 634.627553,442.007917 C634.32516,442.003599 633.979464,442 633.592632,442 C631.613001,442 628.567416,442.085648 624.969729,442.477183 C621.364825,442.868717 617.19627,443.567578 612.963485,444.799041 C608.708326,446.036981 604.368728,447.8176 600.441223,450.381288 C596.470415,452.972326 592.892935,456.380261 590.219027,460.876431 L584.473553,460.876431 L579.949199,444.015252 L532,444.015252 Z" id="Stroke-1" stroke="#2FE6C5" stroke-width="2"></path>
    </g>
</svg>