<svg width="241" height="29" viewBox="0 0 241 29" fill="none" xmlns="http://www.w3.org/2000/svg">
<path d="M22.3 22.7V5.7C22.3 5.4 22 5.1 21.7 5.1H20.1C19.8 5.1 19.5 5.4 19.5 5.7V18.7L10.2 5.3C10.1 5.1 9.90001 5 9.70001 5H7.70001C7.40001 5 7.10001 5.3 7.10001 5.6V22.6C7.10001 22.9 7.40001 23.2 7.70001 23.2H9.30001C9.60001 23.2 9.90001 22.9 9.90001 22.6V9.6L19.2 23C19.3 23.2 19.5 23.3 19.7 23.3H21.7C22 23.3 22.3 23 22.3 22.7Z" fill="#EC1200"/>
<path d="M37.7 22.7V21.3C37.7 21 37.4 20.7 37.1 20.7H28.5V15.3H36.1C36.4 15.3 36.7 15 36.7 14.7V13.3C36.7 13 36.4 12.7 36.1 12.7H28.5V7.7H36.7C37 7.7 37.3 7.4 37.3 7.1V5.7C37.3 5.4 37 5.1 36.7 5.1H26.3C26 5.1 25.7 5.4 25.7 5.7V22.7C25.7 23 26 23.3 26.3 23.3H37.1C37.4 23.3 37.7 23 37.7 22.7Z" fill="#EC1200"/>
<path d="M62.8 5.9C62.9 5.7 62.8 5.5 62.7 5.4C62.6 5.2 62.4 5.2 62.2 5.2H60.6C60.3 5.2 60.1 5.4 60 5.6L56.3 18.6L52.6 5.6C52.5 5.3 52.3 5.2 52 5.2H50C49.7 5.2 49.5 5.4 49.4 5.6L45.7 18.6L42 5.5C41.9 5.2 41.7 5.1 41.4 5.1H39.8C39.6 5.1 39.4 5.2 39.3 5.3C39.2 5.5 39.1 5.7 39.2 5.8L44.1 22.8C44.2 23.1 44.4 23.2 44.7 23.2H46.6C46.9 23.2 47.1 23 47.2 22.8L51 9.7L54.7 22.8C54.8 23.1 55 23.2 55.3 23.2H57.2C57.5 23.2 57.7 23 57.8 22.8L62.8 5.9Z" fill="#EC1200"/>
<path d="M218.8 22.7V21.3C218.8 21 218.5 20.7 218.2 20.7H209.6V15.3H217.2C217.5 15.3 217.8 15 217.8 14.7V13.3C217.8 13 217.5 12.7 217.2 12.7H209.6V7.7H217.8C218.1 7.7 218.4 7.4 218.4 7.1V5.7C218.4 5.4 218.1 5.1 217.8 5.1H207.4C207.1 5.1 206.8 5.4 206.8 5.7V22.7C206.8 23 207.1 23.3 207.4 23.3H218.2C218.6 23.3 218.8 23 218.8 22.7Z" fill="#EC1200"/>
<path d="M227.1 12.6H224.4V7.7H227.1C227.8 7.7 228.5 7.8 228.9 8C229.3 8.2 229.7 8.4 229.9 8.6C230.1 8.8 230.3 9.1 230.3 9.3C230.4 9.6 230.4 9.9 230.4 10.1C230.4 10.3 230.4 10.6 230.3 10.9C230.2 11.2 230.1 11.4 229.9 11.6C229.7 11.8 229.3 12 228.9 12.2C228.4 12.5 227.8 12.6 227.1 12.6ZM233.8 22.3L229.3 14.9C229.5 14.8 229.7 14.8 230 14.7C230.6 14.5 231.1 14.2 231.6 13.9C232.1 13.5 232.5 13 232.8 12.4C233.1 11.8 233.3 11 233.3 10.1C233.3 9.3 233.2 8.6 232.9 8C232.6 7.4 232.3 6.9 231.8 6.5C231.4 6.1 230.9 5.8 230.4 5.6C229.9 5.4 229.4 5.3 228.9 5.2C228.4 5.1 228 5.1 227.6 5C227.2 5 226.9 5 226.7 5H222.2C221.9 5 221.6 5.3 221.6 5.6V22.6C221.6 22.9 221.9 23.2 222.2 23.2H223.8C224.1 23.2 224.4 22.9 224.4 22.6V15.2H226.4L231 23C231.1 23.2 231.3 23.3 231.5 23.3H233.3C233.5 23.3 233.7 23.2 233.8 23C233.9 22.8 233.9 22.5 233.8 22.3Z" fill="#EC1200"/>
<path d="M178.5 12.6H175.8V7.7H178.5C179.2 7.7 179.9 7.8 180.3 8C180.7 8.2 181.1 8.4 181.3 8.6C181.5 8.8 181.7 9.1 181.7 9.3C181.8 9.6 181.8 9.9 181.8 10.1C181.8 10.3 181.8 10.6 181.7 10.9C181.6 11.2 181.5 11.4 181.3 11.6C181.1 11.8 180.7 12 180.3 12.2C179.9 12.5 179.2 12.6 178.5 12.6ZM185.2 22.3L180.7 14.9C180.9 14.8 181.1 14.8 181.4 14.7C182 14.5 182.5 14.2 183 13.9C183.5 13.5 183.9 13 184.2 12.4C184.5 11.8 184.7 11 184.7 10.1C184.7 9.3 184.6 8.6 184.3 8C184 7.4 183.7 6.9 183.2 6.5C182.8 6.1 182.3 5.8 181.8 5.6C181.3 5.4 180.8 5.3 180.3 5.2C179.8 5.1 179.4 5.1 179 5C178.6 5 178.3 5 178.1 5H173.6C173.3 5 173 5.3 173 5.6V22.6C173 22.9 173.3 23.2 173.6 23.2H175.2C175.5 23.2 175.8 22.9 175.8 22.6V15.2H177.8L182.4 23C182.5 23.2 182.7 23.3 182.9 23.3H184.7C184.9 23.3 185.1 23.2 185.2 23C185.3 22.8 185.3 22.5 185.2 22.3Z" fill="#EC1200"/>
<path d="M191.2 7.7H193.8C194.9 7.7 195.9 7.8 196.8 8.1C197.7 8.4 198.5 8.8 199.1 9.3C199.7 9.8 200.3 10.5 200.6 11.3C201 12.1 201.2 13.1 201.2 14.2C201.2 15.3 201 16.3 200.6 17.1C200.2 17.9 199.7 18.6 199.1 19.1C198.4 19.6 197.7 20 196.8 20.3C195.9 20.6 194.9 20.7 193.8 20.7H191.2V7.7ZM204 14.2C204 14 204 13.6 203.9 13.1C203.8 12.6 203.7 12 203.5 11.3C203.3 10.6 203 9.9 202.6 9.2C202.2 8.5 201.6 7.8 200.9 7.2C200.2 6.6 199.3 6.1 198.2 5.7C197.1 5.3 195.8 5.1 194.3 5.1H189C188.7 5.1 188.4 5.4 188.4 5.7V22.7C188.4 23 188.7 23.3 189 23.3H194.2C195.7 23.3 197.1 23.1 198.1 22.7C199.2 22.3 200.1 21.8 200.8 21.2C201.5 20.6 202.1 19.9 202.5 19.2C202.9 18.5 203.2 17.8 203.4 17.1C203.6 16.4 203.7 15.8 203.8 15.3C204 14.8 204 14.4 204 14.2Z" fill="#EC1200"/>
<path d="M170.1 14.2C170.1 12.8 169.9 11.6 169.4 10.3C169.3 10.1 169.2 10 169 9.9C168.8 9.8 168.6 9.9 168.5 10L167.2 10.9C167 11.1 166.9 11.3 167 11.6C167.3 12.4 167.4 13.2 167.4 14.1C167.4 15.1 167.2 16 166.9 16.8C166.6 17.6 166.2 18.4 165.6 19C165 19.6 164.3 20.1 163.5 20.4C161.9 21.1 159.6 21.1 158 20.4C157.3 20.1 156.7 19.7 156.2 19.2C156 19 155.7 19 155.4 19.1L154.1 20C154 20.1 153.9 20.3 153.8 20.4C153.8 20.6 153.8 20.8 154 20.9C154.8 21.7 155.8 22.4 156.9 22.8C158 23.3 159.3 23.5 160.7 23.5C162.1 23.5 163.3 23.3 164.5 22.8C165.6 22.3 166.7 21.7 167.5 20.8C168.3 20 169 18.9 169.4 17.8C169.9 16.8 170.1 15.5 170.1 14.2Z" fill="#EC1200"/>
<path d="M167.6 7.8C167.6 7.6 167.6 7.4 167.4 7.3C166.6 6.5 165.6 5.8 164.5 5.4C162.2 4.4 159.2 4.4 156.9 5.4C155.7 5.9 154.7 6.5 153.9 7.4C153.1 8.2 152.4 9.3 152 10.4C151.5 11.5 151.3 12.8 151.3 14.2C151.3 15.6 151.5 16.9 152 18.1C152.1 18.3 152.2 18.4 152.4 18.5C152.5 18.5 152.5 18.5 152.6 18.5C152.7 18.5 152.8 18.5 153 18.4L154.3 17.5C154.5 17.3 154.6 17.1 154.5 16.8C154.2 16 154.1 15.1 154.1 14.3C154.1 13.3 154.3 12.4 154.6 11.6C154.9 10.8 155.4 10 155.9 9.4C156.5 8.8 157.2 8.3 158 8C159.6 7.3 161.9 7.3 163.5 8C164.2 8.3 164.8 8.7 165.3 9.2C165.5 9.4 165.8 9.4 166.1 9.3L167.4 8.4C167.5 8.1 167.6 7.9 167.6 7.8Z" fill="#EC1200"/>
<path d="M92.6 5.9C92.7 5.7 92.6 5.5 92.5 5.4C92.4 5.2 92.2 5.2 92 5.2H90.4C90.1 5.2 89.9 5.4 89.8 5.6L86.1 18.6L82.4 5.6C82.3 5.3 82.1 5.2 81.8 5.2H79.8C79.5 5.2 79.3 5.4 79.2 5.6L75.5 18.6L71.8 5.6C71.7 5.3 71.5 5.2 71.2 5.2H69.6C69.4 5.2 69.2 5.3 69.1 5.4C69 5.5 69 5.7 69 5.9L73.9 22.9C74 23.2 74.2 23.3 74.5 23.3H76.4C76.7 23.3 76.9 23.1 77 22.9L80.7 9.8L84.4 22.9C84.5 23.2 84.7 23.3 85 23.3H86.9C87.2 23.3 87.4 23.1 87.5 22.9L92.6 5.9Z" fill="#EC1200"/>
<path d="M110.4 20.6C110.4 20.4 110.3 20.3 110.1 20.2L108.8 19.3C108.6 19.1 108.2 19.2 108 19.4C107.5 19.9 106.9 20.3 106.2 20.6C104.6 21.3 102.3 21.3 100.7 20.6C99.9 20.3 99.2 19.8 98.6 19.2C98 18.6 97.6 17.9 97.3 17C97 16.2 96.8 15.2 96.8 14.3C96.8 13.4 96.9 12.6 97.2 11.8C97.3 11.5 97.2 11.3 97 11.1L95.8 10C95.6 9.9 95.4 9.9 95.3 10C95.1 10.1 95 10.2 94.9 10.4C94.4 11.5 94.2 12.8 94.2 14.2C94.2 15.6 94.4 16.9 94.9 18C95.4 19.2 96 20.2 96.8 21C97.6 21.8 98.6 22.5 99.8 23C100.9 23.5 102.2 23.7 103.6 23.7C105 23.7 106.2 23.5 107.4 23C108.5 22.5 109.5 21.9 110.3 21.1C110.3 20.9 110.4 20.8 110.4 20.6Z" fill="#EC1200"/>
<path d="M112.9 14.2C112.9 12.8 112.7 11.6 112.2 10.4C111.7 9.2 111.1 8.2 110.3 7.4C109.5 6.6 108.5 5.9 107.3 5.4C105 4.4 102 4.4 99.7 5.4C98.6 5.9 97.6 6.5 96.8 7.3C96.7 7.4 96.6 7.6 96.6 7.8C96.6 8 96.7 8.1 96.9 8.2L98.2 9.1C98.4 9.3 98.7 9.2 99 9C99.5 8.5 100.1 8.1 100.8 7.8C102.4 7.1 104.7 7.1 106.3 7.8C107.1 8.1 107.8 8.6 108.4 9.2C109 9.8 109.4 10.5 109.7 11.4C110 12.2 110.2 13.2 110.2 14.1C110.2 15 110.1 15.8 109.8 16.6C109.7 16.9 109.8 17.1 110 17.3L111.3 18.2C111.4 18.3 111.5 18.3 111.6 18.3C111.7 18.3 111.8 18.3 111.8 18.3C112 18.2 112.1 18.1 112.2 17.9C112.7 16.8 112.9 15.5 112.9 14.2Z" fill="#EC1200"/>
<path d="M121.3 12.6H118.6V7.7H121.3C122 7.7 122.7 7.8 123.1 8C123.5 8.2 123.9 8.4 124.1 8.6C124.3 8.8 124.5 9.1 124.5 9.3C124.6 9.6 124.6 9.9 124.6 10.1C124.6 10.3 124.6 10.6 124.5 10.9C124.4 11.2 124.3 11.4 124.1 11.6C123.9 11.8 123.5 12 123.1 12.2C122.6 12.5 122 12.6 121.3 12.6ZM127.9 22.3L123.4 14.9C123.6 14.8 123.8 14.8 124.1 14.7C124.7 14.5 125.2 14.2 125.7 13.9C126.2 13.5 126.6 13 126.9 12.4C127.2 11.8 127.4 11 127.4 10.1C127.4 9.3 127.3 8.6 127 8C126.7 7.4 126.4 6.9 125.9 6.5C125.5 6.1 125 5.8 124.5 5.6C124 5.4 123.5 5.3 123 5.2C122.5 5.1 122.1 5.1 121.7 5C121.3 5 121 5 120.8 5H116.3C116 5 115.7 5.3 115.7 5.6V22.6C115.7 22.9 116 23.2 116.3 23.2H117.9C118.2 23.2 118.5 22.9 118.5 22.6V15.2H120.5L125.1 23C125.2 23.2 125.4 23.3 125.6 23.3H127.4C127.6 23.3 127.8 23.2 127.9 23C128.1 22.8 128.1 22.5 127.9 22.3Z" fill="#EC1200"/>
<path d="M134 7.7H136.6C137.7 7.7 138.7 7.8 139.6 8.1C140.5 8.4 141.3 8.8 141.9 9.3C142.5 9.8 143.1 10.5 143.4 11.3C143.8 12.1 144 13.1 144 14.2C144 15.3 143.8 16.3 143.4 17.1C143 17.9 142.5 18.6 141.9 19.1C141.2 19.6 140.5 20 139.6 20.3C138.7 20.6 137.7 20.7 136.6 20.7H134V7.7ZM146.8 14.2C146.8 14 146.8 13.6 146.7 13.1C146.6 12.6 146.5 12 146.3 11.3C146.1 10.6 145.8 9.9 145.4 9.2C145 8.5 144.4 7.8 143.7 7.2C143 6.5 142 6 140.9 5.6C139.8 5.2 138.5 5 137 5H131.8C131.5 5 131.2 5.3 131.2 5.6V22.6C131.2 22.9 131.5 23.2 131.8 23.2H137C138.5 23.2 139.9 23 140.9 22.6C142 22.2 142.9 21.7 143.6 21.1C144.3 20.5 144.9 19.8 145.3 19.1C145.7 18.4 146 17.7 146.2 17C146.4 16.3 146.5 15.7 146.6 15.2C146.8 14.8 146.8 14.4 146.8 14.2Z" fill="#EC1200"/>
</svg>
