<?xml version="1.0" encoding="utf-8"?>
<!-- Generator: Adobe Illustrator 25.0.0, SVG Export Plug-In . SVG Version: 6.00 Build 0)  -->
<svg version="1.0" id="Layer_1" xmlns="http://www.w3.org/2000/svg" xmlns:xlink="http://www.w3.org/1999/xlink" x="0px" y="0px"
	 viewBox="0 0 240.9 28.3" style="enable-background:new 0 0 240.9 28.3;" xml:space="preserve">
<style type="text/css">
	.st0{fill:#FFFFFF;}
</style>
<g>
	<path class="st0" d="M22.3,22.7v-17c0-0.3-0.3-0.6-0.6-0.6h-1.6c-0.3,0-0.6,0.3-0.6,0.6v13L10.2,5.3c-0.1-0.2-0.3-0.3-0.5-0.3h-2
		c-0.3,0-0.6,0.3-0.6,0.6v17c0,0.3,0.3,0.6,0.6,0.6h1.6c0.3,0,0.6-0.3,0.6-0.6v-13L19.2,23c0.1,0.2,0.3,0.3,0.5,0.3h2
		C22,23.3,22.3,23,22.3,22.7"/>
	<path class="st0" d="M37.7,22.7v-1.4c0-0.3-0.3-0.6-0.6-0.6h-8.6v-5.4h7.6c0.3,0,0.6-0.3,0.6-0.6v-1.4c0-0.3-0.3-0.6-0.6-0.6h-7.6
		V7.7h8.2c0.3,0,0.6-0.3,0.6-0.6V5.7c0-0.3-0.3-0.6-0.6-0.6H26.3c-0.3,0-0.6,0.3-0.6,0.6v17c0,0.3,0.3,0.6,0.6,0.6h10.8
		C37.4,23.3,37.7,23,37.7,22.7"/>
	<path class="st0" d="M62.8,5.9c0.1-0.2,0-0.4-0.1-0.5c-0.1-0.2-0.3-0.2-0.5-0.2h-1.6c-0.3,0-0.5,0.2-0.6,0.4l-3.7,13l-3.7-13
		c-0.1-0.3-0.3-0.4-0.6-0.4h-2c-0.3,0-0.5,0.2-0.6,0.4l-3.7,13L42,5.5c-0.1-0.3-0.3-0.4-0.6-0.4h-1.6c-0.2,0-0.4,0.1-0.5,0.2
		c-0.1,0.2-0.2,0.4-0.1,0.5l4.9,17c0.1,0.3,0.3,0.4,0.6,0.4h1.9c0.3,0,0.5-0.2,0.6-0.4L51,9.7l3.7,13.1c0.1,0.3,0.3,0.4,0.6,0.4h1.9
		c0.3,0,0.5-0.2,0.6-0.4L62.8,5.9z"/>
	<path class="st0" d="M218.8,22.7v-1.4c0-0.3-0.3-0.6-0.6-0.6h-8.6v-5.4h7.6c0.3,0,0.6-0.3,0.6-0.6v-1.4c0-0.3-0.3-0.6-0.6-0.6h-7.6
		V7.7h8.2c0.3,0,0.6-0.3,0.6-0.6V5.7c0-0.3-0.3-0.6-0.6-0.6h-10.4c-0.3,0-0.6,0.3-0.6,0.6v17c0,0.3,0.3,0.6,0.6,0.6h10.8
		C218.6,23.3,218.8,23,218.8,22.7"/>
	<path class="st0" d="M227.1,12.6h-2.7V7.7h2.7c0.7,0,1.4,0.1,1.8,0.3c0.4,0.2,0.8,0.4,1,0.6c0.2,0.2,0.4,0.5,0.4,0.7
		c0.1,0.3,0.1,0.6,0.1,0.8c0,0.2,0,0.5-0.1,0.8c-0.1,0.3-0.2,0.5-0.4,0.7c-0.2,0.2-0.6,0.4-1,0.6C228.4,12.5,227.8,12.6,227.1,12.6
		 M233.8,22.3l-4.5-7.4c0.2-0.1,0.4-0.1,0.7-0.2c0.6-0.2,1.1-0.5,1.6-0.8c0.5-0.4,0.9-0.9,1.2-1.5c0.3-0.6,0.5-1.4,0.5-2.3
		c0-0.8-0.1-1.5-0.4-2.1c-0.3-0.6-0.6-1.1-1.1-1.5c-0.4-0.4-0.9-0.7-1.4-0.9c-0.5-0.2-1-0.3-1.5-0.4c-0.5-0.1-0.9-0.1-1.3-0.2
		c-0.4,0-0.7,0-0.9,0h-4.5c-0.3,0-0.6,0.3-0.6,0.6v17c0,0.3,0.3,0.6,0.6,0.6h1.6c0.3,0,0.6-0.3,0.6-0.6v-7.4h2l4.6,7.8
		c0.1,0.2,0.3,0.3,0.5,0.3h1.8c0.2,0,0.4-0.1,0.5-0.3C233.9,22.8,233.9,22.5,233.8,22.3"/>
	<path class="st0" d="M178.5,12.6h-2.7V7.7h2.7c0.7,0,1.4,0.1,1.8,0.3c0.4,0.2,0.8,0.4,1,0.6c0.2,0.2,0.4,0.5,0.4,0.7
		c0.1,0.3,0.1,0.6,0.1,0.8c0,0.2,0,0.5-0.1,0.8c-0.1,0.3-0.2,0.5-0.4,0.7c-0.2,0.2-0.6,0.4-1,0.6C179.9,12.5,179.2,12.6,178.5,12.6
		 M185.2,22.3l-4.5-7.4c0.2-0.1,0.4-0.1,0.7-0.2c0.6-0.2,1.1-0.5,1.6-0.8c0.5-0.4,0.9-0.9,1.2-1.5c0.3-0.6,0.5-1.4,0.5-2.3
		c0-0.8-0.1-1.5-0.4-2.1c-0.3-0.6-0.6-1.1-1.1-1.5c-0.4-0.4-0.9-0.7-1.4-0.9c-0.5-0.2-1-0.3-1.5-0.4c-0.5-0.1-0.9-0.1-1.3-0.2
		c-0.4,0-0.7,0-0.9,0h-4.5c-0.3,0-0.6,0.3-0.6,0.6v17c0,0.3,0.3,0.6,0.6,0.6h1.6c0.3,0,0.6-0.3,0.6-0.6l0-7.4h2l4.6,7.8
		c0.1,0.2,0.3,0.3,0.5,0.3h1.8c0.2,0,0.4-0.1,0.5-0.3C185.3,22.8,185.3,22.5,185.2,22.3"/>
	<path class="st0" d="M191.2,7.7h2.6c1.1,0,2.1,0.1,3,0.4c0.9,0.3,1.7,0.7,2.3,1.2c0.6,0.5,1.2,1.2,1.5,2c0.4,0.8,0.6,1.8,0.6,2.9
		c0,1.1-0.2,2.1-0.6,2.9c-0.4,0.8-0.9,1.5-1.5,2c-0.7,0.5-1.4,0.9-2.3,1.2c-0.9,0.3-1.9,0.4-3,0.4h-2.6V7.7z M204,14.2
		c0-0.2,0-0.6-0.1-1.1c-0.1-0.5-0.2-1.1-0.4-1.8c-0.2-0.7-0.5-1.4-0.9-2.1c-0.4-0.7-1-1.4-1.7-2c-0.7-0.6-1.6-1.1-2.7-1.5
		c-1.1-0.4-2.4-0.6-3.9-0.6H189c-0.3,0-0.6,0.3-0.6,0.6v17c0,0.3,0.3,0.6,0.6,0.6h5.2c1.5,0,2.9-0.2,3.9-0.6c1.1-0.4,2-0.9,2.7-1.5
		c0.7-0.6,1.3-1.3,1.7-2c0.4-0.7,0.7-1.4,0.9-2.1c0.2-0.7,0.3-1.3,0.4-1.8C204,14.8,204,14.4,204,14.2"/>
	<path class="st0" d="M170.1,14.2c0-1.4-0.2-2.6-0.7-3.9c-0.1-0.2-0.2-0.3-0.4-0.4c-0.2-0.1-0.4,0-0.5,0.1l-1.3,0.9
		c-0.2,0.2-0.3,0.4-0.2,0.7c0.3,0.8,0.4,1.6,0.4,2.5c0,1-0.2,1.9-0.5,2.7c-0.3,0.8-0.7,1.6-1.3,2.2c-0.6,0.6-1.3,1.1-2.1,1.4
		c-1.6,0.7-3.9,0.7-5.5,0c-0.7-0.3-1.3-0.7-1.8-1.2c-0.2-0.2-0.5-0.2-0.8-0.1l-1.3,0.9c-0.1,0.1-0.2,0.3-0.3,0.4
		c0,0.2,0,0.4,0.2,0.5c0.8,0.8,1.8,1.5,2.9,1.9c1.1,0.5,2.4,0.7,3.8,0.7c1.4,0,2.6-0.2,3.8-0.7c1.1-0.5,2.2-1.1,3-2
		c0.8-0.8,1.5-1.9,1.9-3C169.9,16.8,170.1,15.5,170.1,14.2"/>
	<path class="st0" d="M167.6,7.8c0-0.2,0-0.4-0.2-0.5c-0.8-0.8-1.8-1.5-2.9-1.9c-2.3-1-5.3-1-7.6,0c-1.2,0.5-2.2,1.1-3,2
		c-0.8,0.8-1.5,1.9-1.9,3c-0.5,1.1-0.7,2.4-0.7,3.8s0.2,2.7,0.7,3.9c0.1,0.2,0.2,0.3,0.4,0.4c0.1,0,0.1,0,0.2,0c0.1,0,0.2,0,0.4-0.1
		l1.3-0.9c0.2-0.2,0.3-0.4,0.2-0.7c-0.3-0.8-0.4-1.7-0.4-2.5c0-1,0.2-1.9,0.5-2.7c0.3-0.8,0.8-1.6,1.3-2.2c0.6-0.6,1.3-1.1,2.1-1.4
		c1.6-0.7,3.9-0.7,5.5,0c0.7,0.3,1.3,0.7,1.8,1.2c0.2,0.2,0.5,0.2,0.8,0.1l1.3-0.9C167.5,8.1,167.6,7.9,167.6,7.8"/>
	<path class="st0" d="M92.6,5.9c0.1-0.2,0-0.4-0.1-0.5c-0.1-0.2-0.3-0.2-0.5-0.2h-1.6c-0.3,0-0.5,0.2-0.6,0.4l-3.7,13l-3.7-13
		c-0.1-0.3-0.3-0.4-0.6-0.4h-2c-0.3,0-0.5,0.2-0.6,0.4l-3.7,13l-3.7-13c-0.1-0.3-0.3-0.4-0.6-0.4h-1.6c-0.2,0-0.4,0.1-0.5,0.2
		C69,5.5,69,5.7,69,5.9l4.9,17c0.1,0.3,0.3,0.4,0.6,0.4h1.9c0.3,0,0.5-0.2,0.6-0.4l3.7-13.1l3.7,13.1c0.1,0.3,0.3,0.4,0.6,0.4h1.9
		c0.3,0,0.5-0.2,0.6-0.4L92.6,5.9z"/>
	<path class="st0" d="M110.4,20.6c0-0.2-0.1-0.3-0.3-0.4l-1.3-0.9c-0.2-0.2-0.6-0.1-0.8,0.1c-0.5,0.5-1.1,0.9-1.8,1.2
		c-1.6,0.7-3.9,0.7-5.5,0c-0.8-0.3-1.5-0.8-2.1-1.4c-0.6-0.6-1-1.3-1.3-2.2c-0.3-0.8-0.5-1.8-0.5-2.7c0-0.9,0.1-1.7,0.4-2.5
		c0.1-0.3,0-0.5-0.2-0.7L95.8,10c-0.2-0.1-0.4-0.1-0.5,0c-0.2,0.1-0.3,0.2-0.4,0.4c-0.5,1.1-0.7,2.4-0.7,3.8c0,1.4,0.2,2.7,0.7,3.8
		c0.5,1.2,1.1,2.2,1.9,3c0.8,0.8,1.8,1.5,3,2c1.1,0.5,2.4,0.7,3.8,0.7c1.4,0,2.6-0.2,3.8-0.7c1.1-0.5,2.1-1.1,2.9-1.9
		C110.3,20.9,110.4,20.8,110.4,20.6"/>
	<path class="st0" d="M112.9,14.2c0-1.4-0.2-2.6-0.7-3.8c-0.5-1.2-1.1-2.2-1.9-3c-0.8-0.8-1.8-1.5-3-2c-2.3-1-5.3-1-7.6,0
		c-1.1,0.5-2.1,1.1-2.9,1.9c-0.1,0.1-0.2,0.3-0.2,0.5c0,0.2,0.1,0.3,0.3,0.4l1.3,0.9C98.4,9.3,98.7,9.2,99,9
		c0.5-0.5,1.1-0.9,1.8-1.2c1.6-0.7,3.9-0.7,5.5,0c0.8,0.3,1.5,0.8,2.1,1.4c0.6,0.6,1,1.3,1.3,2.2c0.3,0.8,0.5,1.8,0.5,2.7
		c0,0.9-0.1,1.7-0.4,2.5c-0.1,0.3,0,0.5,0.2,0.7l1.3,0.9c0.1,0.1,0.2,0.1,0.3,0.1c0.1,0,0.2,0,0.2,0c0.2-0.1,0.3-0.2,0.4-0.4
		C112.7,16.8,112.9,15.5,112.9,14.2"/>
	<path class="st0" d="M121.3,12.6h-2.7V7.7h2.7c0.7,0,1.4,0.1,1.8,0.3c0.4,0.2,0.8,0.4,1,0.6c0.2,0.2,0.4,0.5,0.4,0.7
		c0.1,0.3,0.1,0.6,0.1,0.8c0,0.2,0,0.5-0.1,0.8c-0.1,0.3-0.2,0.5-0.4,0.7c-0.2,0.2-0.6,0.4-1,0.6C122.6,12.5,122,12.6,121.3,12.6
		 M127.9,22.3l-4.5-7.4c0.2-0.1,0.4-0.1,0.7-0.2c0.6-0.2,1.1-0.5,1.6-0.8c0.5-0.4,0.9-0.9,1.2-1.5c0.3-0.6,0.5-1.4,0.5-2.3
		c0-0.8-0.1-1.5-0.4-2.1c-0.3-0.6-0.6-1.1-1.1-1.5c-0.4-0.4-0.9-0.7-1.4-0.9c-0.5-0.2-1-0.3-1.5-0.4c-0.5-0.1-0.9-0.1-1.3-0.2
		c-0.4,0-0.7,0-0.9,0h-4.5c-0.3,0-0.6,0.3-0.6,0.6l0,17c0,0.3,0.3,0.6,0.6,0.6h1.6c0.3,0,0.6-0.3,0.6-0.6v-7.4h2l4.6,7.8
		c0.1,0.2,0.3,0.3,0.5,0.3h1.8c0.2,0,0.4-0.1,0.5-0.3C128.1,22.8,128.1,22.5,127.9,22.3"/>
	<path class="st0" d="M134,7.7h2.6c1.1,0,2.1,0.1,3,0.4c0.9,0.3,1.7,0.7,2.3,1.2c0.6,0.5,1.2,1.2,1.5,2c0.4,0.8,0.6,1.8,0.6,2.9
		s-0.2,2.1-0.6,2.9c-0.4,0.8-0.9,1.5-1.5,2c-0.7,0.5-1.4,0.9-2.3,1.2c-0.9,0.3-1.9,0.4-3,0.4H134V7.7z M146.8,14.2
		c0-0.2,0-0.6-0.1-1.1c-0.1-0.5-0.2-1.1-0.4-1.8c-0.2-0.7-0.5-1.4-0.9-2.1c-0.4-0.7-1-1.4-1.7-2C143,6.5,142,6,140.9,5.6
		c-1.1-0.4-2.4-0.6-3.9-0.6h-5.2c-0.3,0-0.6,0.3-0.6,0.6v17c0,0.3,0.3,0.6,0.6,0.6h5.2c1.5,0,2.9-0.2,3.9-0.6c1.1-0.4,2-0.9,2.7-1.5
		c0.7-0.6,1.3-1.3,1.7-2c0.4-0.7,0.7-1.4,0.9-2.1c0.2-0.7,0.3-1.3,0.4-1.8C146.8,14.8,146.8,14.4,146.8,14.2"/>
</g>
</svg>
