<?xml version="1.0" encoding="UTF-8"?>
<svg width="2500px" height="2500px" viewBox="0 0 2500 2500" version="1.1" xmlns="http://www.w3.org/2000/svg" xmlns:xlink="http://www.w3.org/1999/xlink">
    <title>Artboard</title>
    <g id="Artboard" stroke="none" stroke-width="1" fill="none" fill-rule="evenodd">
        <g id="google-podcast-icon" fill="#000000" fill-rule="nonzero">
            <path d="M312.5,1164.77051 L312.5,1335.22949 C312.5,1421.52344 242.543945,1491.47949 156.25,1491.47949 C69.9560547,1491.47949 0,1421.52344 0,1335.22949 L0,1164.77051 C0,1078.47656 69.9560547,1008.52051 156.25,1008.52051 C242.543945,1008.52051 312.5,1078.47656 312.5,1164.77051 Z" id="Path"></path>
            <path d="M2187.56348,1169.21387 C2187.52164,1167.73311 2187.5,1166.25185 2187.5,1164.77051 C2187.5,1078.47656 2257.45605,1008.52051 2343.75,1008.52051 C2430.04395,1008.52051 2500,1078.47656 2500,1164.77051 C2500,1166.25488 2499.98047,1167.73926 2499.93652,1169.21387 L2500,1169.21387 L2500,1339.66797 L2499.93652,1339.66797 C2497.59277,1423.90625 2428.55957,1491.47461 2343.75,1491.47461 C2258.94043,1491.47461 2189.91211,1423.90625 2187.56348,1339.66797 L2187.5,1339.66797 L2187.5,1169.20898 L2187.56348,1169.20898 L2187.56348,1169.21387 Z" id="Path"></path>
            <path d="M852.5,1676.1377 L852.5,1846.5918 C852.5,1932.88574 782.548828,2002.8418 696.25,2002.8418 C609.951172,2002.8418 540,1932.88574 540,1846.5918 L540,1676.13281 C540,1589.84375 609.956054,1519.88281 696.25,1519.88281 C782.543945,1519.88281 852.5,1589.84375 852.5,1676.13281 L852.5,1676.1377 Z M852.5,653.408203 L852.5,1210.9375 L852.460937,1210.9375 C850.576172,1295.59082 781.357422,1363.6377 696.25,1363.6377 C611.142578,1363.6377 541.928711,1295.59082 540.043945,1210.9375 L540,1210.9375 L540,653.408203 C540,567.114258 609.956054,497.158203 696.25,497.158203 C782.543945,497.158203 852.5,567.114258 852.5,653.408203 L852.5,653.408203 Z" id="Shape"></path>
            <path d="M1647.72949,823.862305 C1647.72949,910.15625 1717.68066,980.112305 1803.97949,980.112305 C1890.27832,980.112305 1960.22949,910.15625 1960.22949,823.862305 L1960.22949,653.408203 C1960.22949,567.114258 1890.27344,497.158203 1803.97949,497.158203 C1717.68555,497.158203 1647.72949,567.114258 1647.72949,653.408203 L1647.72949,823.862305 Z" id="Path"></path>
            <path d="M1093.75,326.708984 C1093.75,412.998047 1163.70605,482.958984 1250,482.958984 C1336.29395,482.958984 1406.25,412.998047 1406.25,326.708984 L1406.25,156.25 C1406.25,69.9560547 1336.29395,0 1250,0 C1163.70605,0 1093.75,69.9560547 1093.75,156.25 L1093.75,326.708984 Z M1093.75,2173.29102 C1093.75,2087.00195 1163.70605,2017.04102 1250,2017.04102 C1336.29395,2017.04102 1406.25,2087.00195 1406.25,2173.29102 L1406.25,2343.75 C1406.25,2430.04395 1336.29395,2500 1250,2500 C1163.70605,2500 1093.75,2430.04395 1093.75,2343.75 L1093.75,2173.29102 Z" id="Shape"></path>
            <path d="M1647.72949,1292.6123 C1647.72949,1206.31836 1717.68066,1136.3623 1803.97949,1136.3623 C1890.27832,1136.3623 1960.22949,1206.31836 1960.22949,1292.6123 L1960.22949,1846.5918 C1960.22949,1932.88574 1890.27344,2002.8418 1803.97949,2002.8418 C1717.68555,2002.8418 1647.72949,1932.88574 1647.72949,1846.5918 L1647.72949,1292.6123 Z" id="Path"></path>
            <path d="M1406.47949,795.458984 L1406.47949,1704.54102 C1406.47949,1790.83984 1336.52344,1860.79102 1250.22949,1860.79102 C1163.93554,1860.79102 1093.97949,1790.83984 1093.97949,1704.54102 L1093.97949,795.458984 C1093.97949,709.160156 1163.93554,639.208984 1250.22949,639.208984 C1336.52344,639.208984 1406.47949,709.160156 1406.47949,795.458984 Z" id="Path"></path>
        </g>
    </g>
</svg>