<?xml version="1.0" encoding="UTF-8"?>
<svg width="149px" height="80px" viewBox="0 0 149 80" version="1.1" xmlns="http://www.w3.org/2000/svg" xmlns:xlink="http://www.w3.org/1999/xlink">
    <title>Artboard</title>
    <defs>
        <polygon id="path-1" points="4.12114787e-13 80 156.638 80 156.638 0 4.12114787e-13 0"></polygon>
    </defs>
    <g id="Artboard" stroke="none" stroke-width="1" fill="none" fill-rule="evenodd">
        <g id="Group-5">
            <g id="Group-3" fill="#EC1200">
                <path d="M17.9569,10.9101 C14.2409,10.9601 11.0589,12.7801 8.9209,15.7901 L8.3049,15.7901 L8.3049,0.0001 L-0.0001,0.0001 L-0.0001,38.5211 L8.3049,38.5211 L8.3049,34.5901 L9.0329,34.5901 C11.2719,37.4151 14.5889,39.1201 18.3349,39.0691 C25.1869,38.9771 30.5539,33.8561 30.5539,24.8231 C30.5539,15.7901 24.8099,10.8171 17.9569,10.9101 M15.6159,31.8331 C12.0289,31.8811 9.1959,31.4591 9.1959,25.2971 C9.1959,19.1351 11.8449,18.1951 15.4329,18.1461 C19.0199,18.0981 22.0199,19.1351 22.0199,24.9021 C22.0199,30.6701 19.2029,31.7841 15.6159,31.8331" id="Fill-1"></path>
            </g>
            <path d="M140.1215,3.55271368e-15 L140.1215,15.79 L139.5045,15.79 C137.3675,12.78 134.1845,10.959 130.4685,10.909 C123.6165,10.818 117.8725,15.79 117.8725,24.823 C117.8725,33.856 123.2385,38.978 130.0915,39.07 C133.8375,39.12 137.1535,37.414 139.3925,34.59 L140.1215,34.59 L140.1215,38.521 L148.4265,38.521 L148.4265,3.55271368e-15 L140.1215,3.55271368e-15 Z M132.8095,31.833 C129.2225,31.785 126.4065,30.671 126.4065,24.902 C126.4065,19.134 129.4065,18.099 132.9935,18.146 C136.5805,18.194 139.2295,19.134 139.2295,25.297 C139.2295,31.459 136.3965,31.881 132.8095,31.833 L132.8095,31.833 Z" id="Fill-4" fill="#EC1200"></path>
            <path d="M77.2582,11.4355 L77.2582,15.7895 L76.6422,15.7895 C74.5042,12.7805 71.3212,10.9595 67.6062,10.9105 C60.7532,10.8175 55.0092,15.7895 55.0092,24.8235 C55.0092,33.8565 60.3752,38.9775 67.2282,39.0695 C70.9742,39.1205 74.2902,37.4145 76.5292,34.5895 L77.2582,34.5895 L77.2582,38.5215 L85.5632,38.5215 L85.5632,11.4355 L77.2582,11.4355 Z M69.9462,31.8325 C66.3602,31.7845 63.5432,30.6695 63.5432,24.9025 C63.5432,19.1345 66.5432,18.0985 70.1302,18.1465 C73.7172,18.1955 76.3662,19.1345 76.3662,25.2965 C76.3662,31.4585 73.5332,31.8805 69.9462,31.8325 L69.9462,31.8325 Z" id="Fill-6" fill="#EC1200"></path>
            <path d="M49.4291,11.4355 C43.8031,11.4355 41.9281,15.7895 41.9281,15.7895 L40.9671,15.7895 L40.9671,11.4355 L32.6621,11.4355 L32.6621,38.5215 L40.9671,38.5215 L40.9671,24.9785 C40.9671,19.5525 46.1031,19.7595 46.1031,19.7595 L53.1301,19.7595 L53.1301,11.4355 L49.4291,11.4355 Z" id="Fill-8" fill="#EC1200"></path>
            <mask id="mask-2" fill="white">
                <use xlink:href="#path-1"></use>
            </mask>
            <g id="Clip-11"></g>
            <polygon id="Fill-10" fill="#EC1200" mask="url(#mask-2)" points="44.338 38.521 52.643 38.521 52.643 30.216 44.338 30.216"></polygon>
            <path d="M77.2582,41.2841 L77.2582,45.6391 L76.6422,45.6391 C74.5042,42.6301 71.3212,40.8081 67.6062,40.7591 C60.7532,40.6671 55.0092,45.6391 55.0092,54.6731 C55.0092,63.7061 60.3752,68.8271 67.2282,68.9191 C70.9742,68.9691 74.2902,67.2631 76.5292,64.4391 L77.2582,64.4391 L77.2582,68.3711 L85.5632,68.3711 L85.5632,41.2841 L77.2582,41.2841 Z M69.9462,61.6811 C66.3602,61.6341 63.5432,60.5201 63.5432,54.7521 C63.5432,48.9831 66.5432,47.9481 70.1302,47.9961 C73.7172,48.0441 76.3662,48.9831 76.3662,55.1461 C76.3662,61.3081 73.5332,61.7291 69.9462,61.6811 L69.9462,61.6811 Z" id="Fill-12" fill="#EC1200" mask="url(#mask-2)"></path>
            <path d="M44.3383,41.2841 L44.3383,68.3711 C44.3383,71.4671 43.2873,72.4241 41.4953,72.4241 L35.0393,72.4241 L35.0393,80.0001 L41.4953,80.0001 C51.0433,80.0001 52.6433,78.4441 52.6433,69.4241 L52.6433,41.2841 L44.3383,41.2841 Z" id="Fill-13" fill="#EC1200" mask="url(#mask-2)"></path>
            <path d="M105.9691,10.9081995 C104.3481,10.9081995 99.9481,10.8942 97.0821,15.7902 L96.1201,15.7902 L96.1201,11.4352 L87.8161,11.4352 L87.8161,38.5212 L96.1201,38.5212 L96.1201,26.8862 L96.1201,24.6762 L96.1201,24.3292 C96.1201,19.2402 98.7671,18.3262 101.9311,18.3682 C105.0961,18.4102 107.4331,19.2402 107.4331,24.6762 L107.4331,27.9452 L107.4331,38.5212 L115.9381,38.5212 L115.9381,23.3042 C115.9381,10.8942 107.5901,10.9081995 105.9691,10.9081995" id="Fill-14" fill="#EC1200" mask="url(#mask-2)"></path>
            <path d="M97.0814,45.6533 L96.1204,45.6533 L96.1204,41.2993 L87.8154,41.2993 L87.8154,68.3843 L96.1204,68.3843 L96.1204,56.7503 L96.1204,54.5393 L96.1204,54.1913 C96.1204,49.1033 98.7674,48.1893 101.9324,48.2313 C105.0964,48.2743 107.4334,49.1033 107.4334,54.5393 L107.4334,57.8083 L107.4334,68.3843 L115.9374,68.3843 L115.9374,56.7503 L115.9374,54.5393 L115.9374,54.1913 C115.9374,49.1033 118.5844,48.1893 121.7494,48.2313 C124.9144,48.2743 127.2514,49.1033 127.2514,54.5393 L127.2504,54.5393 L127.2504,57.8083 L127.2504,68.3843 L135.7564,68.3843 L135.7564,53.1673 C135.7564,40.7653 126.5484,40.7722994 124.5414,40.7722994 C122.5334,40.7722994 117.6184,40.7573 114.7844,45.6533 L114.3524,45.6533 L114.3504,45.6543 C111.6314,40.7573 107.5714,40.7722994 105.9694,40.7722994 C104.3664,40.7722994 99.9044,40.7573 97.0814,45.6533" id="Fill-15" fill="#EC1200" mask="url(#mask-2)"></path>
            <polygon id="Fill-16" fill="#EC1200" mask="url(#mask-2)" points="107.5336 57.8086 107.5336 68.3846 107.5336 54.5396"></polygon>
        </g>
    </g>
</svg>