<?xml version="1.0" encoding="UTF-8"?>
<svg width="149px" height="80px" viewBox="0 0 149 80" version="1.1" xmlns="http://www.w3.org/2000/svg" xmlns:xlink="http://www.w3.org/1999/xlink">
    <title>Artboard</title>
    <defs>
        <polygon id="path-1" points="0 0.001 30.5539 0.001 30.5539 39.0710702 0 39.0710702"></polygon>
        <polygon id="path-3" points="0.8725 0 31.4265 0 31.4265 39.0708702 0.8725 39.0708702"></polygon>
        <polygon id="path-5" points="0 80 156.638 80 156.638 0 0 0"></polygon>
    </defs>
    <g id="Artboard" stroke="none" stroke-width="1" fill="none" fill-rule="evenodd">
        <g id="Group-20">
            <g id="Group-3">
                <mask id="mask-2" fill="white">
                    <use xlink:href="#path-1"></use>
                </mask>
                <g id="Clip-2"></g>
                <path d="M17.9569,10.91 C14.2409,10.96 11.0589,12.78 8.9209,15.791 L8.3049,15.791 L8.3049,0.001 L-0.0001,0.001 L-0.0001,38.521 L8.3049,38.521 L8.3049,34.59 L9.0329,34.59 C11.2719,37.415 14.5889,39.12 18.3349,39.07 C25.1869,38.977 30.5539,33.856 30.5539,24.823 C30.5539,15.791 24.8099,10.817 17.9569,10.91 M15.6159,31.833 C12.0289,31.881 9.1959,31.459 9.1959,25.297 C9.1959,19.135 11.8449,18.195 15.4329,18.147 C19.0199,18.098 22.0199,19.135 22.0199,24.903 C22.0199,30.671 19.2029,31.785 15.6159,31.833" id="Fill-1" fill="#000000" mask="url(#mask-2)"></path>
            </g>
            <g id="Group-6" transform="translate(117.000000, 0.000000)">
                <mask id="mask-4" fill="white">
                    <use xlink:href="#path-3"></use>
                </mask>
                <g id="Clip-5"></g>
                <path d="M23.1215,-0.0002 L23.1215,15.7898 L22.5045,15.7898 C20.3675,12.7798 17.1845,10.9598 13.4685,10.9088 C6.6165,10.8178 0.8725,15.7898 0.8725,24.8228 C0.8725,33.8558 6.2385,38.9788 13.0915,39.0698 C16.8375,39.1198 20.1535,37.4148 22.3925,34.5898 L23.1215,34.5898 L23.1215,38.5208 L31.4265,38.5208 L31.4265,-0.0002 L23.1215,-0.0002 Z M15.8095,31.8328 C12.2225,31.7848 9.4065,30.6708 9.4065,24.9018 C9.4065,19.1348 12.4065,18.0988 15.9935,18.1458 C19.5805,18.1938 22.2295,19.1348 22.2295,25.2968 C22.2295,31.4588 19.3965,31.8808 15.8095,31.8328 L15.8095,31.8328 Z" id="Fill-4" fill="#000000" mask="url(#mask-4)"></path>
            </g>
            <path d="M77.2582,11.4354 L77.2582,15.7904 L76.6422,15.7904 C74.5042,12.7804 71.3212,10.9594 67.6062,10.9104 C60.7532,10.8174 55.0092,15.7904 55.0092,24.8234 C55.0092,33.8564 60.3752,38.9774 67.2282,39.0704 C70.9742,39.1204 74.2902,37.4144 76.5292,34.5894 L77.2582,34.5894 L77.2582,38.5214 L85.5632,38.5214 L85.5632,11.4354 L77.2582,11.4354 Z M69.9462,31.8324 C66.3602,31.7854 63.5432,30.6704 63.5432,24.9034 C63.5432,19.1344 66.5432,18.0984 70.1302,18.1474 C73.7172,18.1954 76.3662,19.1344 76.3662,25.2964 C76.3662,31.4584 73.5332,31.8804 69.9462,31.8324 L69.9462,31.8324 Z" id="Fill-7" fill="#000000"></path>
            <path d="M49.4291,11.4354 C43.8031,11.4354 41.9281,15.7904 41.9281,15.7904 L40.9671,15.7904 L40.9671,11.4354 L32.6621,11.4354 L32.6621,38.5214 L40.9671,38.5214 L40.9671,24.9784 C40.9671,19.5524 46.1031,19.7594 46.1031,19.7594 L53.1301,19.7594 L53.1301,11.4354 L49.4291,11.4354 Z" id="Fill-9" fill="#000000"></path>
            <mask id="mask-6" fill="white">
                <use xlink:href="#path-5"></use>
            </mask>
            <g id="Clip-12"></g>
            <polygon id="Fill-11" fill="#000000" mask="url(#mask-6)" points="44.338 38.521 52.643 38.521 52.643 30.216 44.338 30.216"></polygon>
            <path d="M77.2582,41.285 L77.2582,45.639 L76.6422,45.639 C74.5042,42.63 71.3212,40.809 67.6062,40.759 C60.7532,40.667 55.0092,45.639 55.0092,54.673 C55.0092,63.706 60.3752,68.827 67.2282,68.919 C70.9742,68.969 74.2902,67.264 76.5292,64.439 L77.2582,64.439 L77.2582,68.371 L85.5632,68.371 L85.5632,41.285 L77.2582,41.285 Z M69.9462,61.681 C66.3602,61.634 63.5432,60.52 63.5432,54.752 C63.5432,48.984 66.5432,47.948 70.1302,47.996 C73.7172,48.044 76.3662,48.984 76.3662,55.146 C76.3662,61.308 73.5332,61.73 69.9462,61.681 L69.9462,61.681 Z" id="Fill-13" fill="#000000" mask="url(#mask-6)"></path>
            <path d="M44.3383,41.285 L44.3383,68.371 C44.3383,71.467 43.2873,72.424 41.4953,72.424 L35.0393,72.424 L35.0393,80 L41.4953,80 C51.0433,80 52.6433,78.444 52.6433,69.424 L52.6433,41.285 L44.3383,41.285 Z" id="Fill-14" fill="#000000" mask="url(#mask-6)"></path>
            <path d="M105.9691,10.9079995 C104.3481,10.9079995 99.9481,10.894 97.0821,15.79 L96.1201,15.79 L96.1201,11.435 L87.8161,11.435 L87.8161,38.521 L96.1201,38.521 L96.1201,26.886 L96.1201,24.677 L96.1201,24.329 C96.1201,19.24 98.7671,18.326 101.9311,18.368 C105.0961,18.411 107.4331,19.24 107.4331,24.677 L107.4331,27.945 L107.4331,38.521 L115.9381,38.521 L115.9381,23.304 C115.9381,10.894 107.5901,10.9079995 105.9691,10.9079995" id="Fill-15" fill="#000000" mask="url(#mask-6)"></path>
            <path d="M97.0814,45.6532 L96.1204,45.6532 L96.1204,41.2992 L87.8154,41.2992 L87.8154,68.3842 L96.1204,68.3842 L96.1204,56.7502 L96.1204,54.5392 L96.1204,54.1922 C96.1204,49.1032 98.7674,48.1892 101.9324,48.2312 C105.0964,48.2742 107.4334,49.1032 107.4334,54.5392 L107.4334,57.8082 L107.4334,68.3842 L115.9374,68.3842 L115.9374,56.7502 L115.9374,54.5392 L115.9374,54.1922 C115.9374,49.1032 118.5844,48.1892 121.7494,48.2312 C124.9144,48.2742 127.2514,49.1032 127.2514,54.5392 L127.2504,54.5392 L127.2504,57.8082 L127.2504,68.3842 L135.7564,68.3842 L135.7564,53.1672 C135.7564,40.7652 126.5484,40.7721994 124.5414,40.7721994 C122.5334,40.7721994 117.6184,40.7572 114.7844,45.6532 L114.3524,45.6532 L114.3504,45.6542 C111.6314,40.7572 107.5714,40.7721994 105.9694,40.7721994 C104.3664,40.7721994 99.9044,40.7572 97.0814,45.6532" id="Fill-16" fill="#000000" mask="url(#mask-6)"></path>
            <polygon id="Fill-17" fill="#000000" mask="url(#mask-6)" points="107.5336 57.8094 107.5336 68.3844 107.5336 54.5394"></polygon>
        </g>
    </g>
</svg>