<?xml version="1.0" encoding="UTF-8"?>
<svg width="309px" height="43px" viewBox="0 0 309 43" version="1.1" xmlns="http://www.w3.org/2000/svg" xmlns:xlink="http://www.w3.org/1999/xlink">
    <title>Group 12</title>
    <g id="Page-1" stroke="none" stroke-width="1" fill="none" fill-rule="evenodd">
        <g id="Homepage" transform="translate(-835.000000, -2819.000000)" fill="#000000">
            <g id="Group-12" transform="translate(835.000000, 2819.000000)">
                <path d="M0.315131256,40.5371083 C5.80551232,42.2624401 13.7595189,42.6756615 17.8437074,41.655286 C23.087617,40.3454047 26.1209016,37.4054861 25.9963057,33.6031802 C25.8714377,29.8008743 24.3417374,28.0858521 20.6778561,25.885441 C16.1227604,23.149486 11.4555829,22.9031692 8.33769282,19.4917936 C5.57209903,16.4657756 8.20003883,13.2135028 11.0121521,12.6963491 C13.4608152,12.24579 16.2255929,12.6043982 16.2255929,12.6043982 L18.3146146,20.4076796 L23.8672936,20.4076796 L24.6472422,12.1003405 C16.3180876,10.8542676 12.3223133,11.0682622 8.17637105,11.7810204 C3.52823653,12.5795994 -0.121498493,15.5830477 0.0030974106,19.3853536 C0.127965358,23.1876595 1.28224575,24.625436 4.96326577,27.117582 C9.24332549,30.0154262 15.5071261,30.3765421 17.8156869,33.6355023 C20.5543484,37.5024524 17.4100701,39.9940411 14.6961646,40.6967683 C11.981987,41.3997742 9.08091555,40.6967683 9.08091555,40.6967683 L5.68064437,32.2618127 L0.658178056,32.2618127 L0.315131256,40.5371083 Z" id="Fill-1"></path>
                <path d="M53.9618678,32.248097 L55,33.4047862 C55,33.4047862 52.607735,42.2055855 42.7674686,42.2055855 C32.9272021,42.2055855 29,33.3583183 29,27.0665079 C29,20.7744191 31.4840246,11.8063911 43.3541327,11.2604627 C49.5495343,10.9752555 55,11.8945966 55,11.8945966 L53.847847,21.6929255 L49.3980495,21.6929255 L46.2399449,12.512592 C46.2399449,12.512592 42.9949672,12.2087419 40.5557365,14.7781112 C38.4887023,16.9557031 35.1011987,25.4006194 39.6658313,32.8744399 C44.230464,40.3482604 53.0152237,35.4343486 53.9618678,32.248097" id="Fill-4"></path>
                <path d="M87,26.7032229 C87,26.6984976 87,26.6937724 87,26.6890472 L86.9994399,26.6890472 C86.9921588,17.6980493 83.9898064,11.2055855 72,11.2055855 C60.8164405,11.2055855 57.0100816,18.134716 57,26.6890472 L57,26.6890472 C57,26.6951622 57,26.7015551 57,26.7076701 C57,26.7126733 57,26.7173986 57,26.7221238 L57,26.7221238 C57.0075612,35.7128437 60.0099136,42.2055855 72,42.2055855 C83.1832795,42.2055855 86.9896384,35.2764549 86.9994399,26.7221238 L87,26.7221238 C87,26.7157308 87,26.7096158 87,26.7032229 M72,40.8991988 C67.1199522,40.8991988 65.4609712,34.5459902 65.4587308,26.7054465 C65.4609712,18.8651807 67.1199522,12.5116942 72,12.5116942 C76.8797678,12.5116942 78.5387488,18.8651807 78.5412692,26.7054465 C78.5387488,34.5459902 76.8797678,40.8991988 72,40.8991988" id="Fill-6"></path>
                <path d="M169,26.7032229 C169,26.6984976 169,26.6937724 169,26.6890472 L168.99944,26.6890472 C168.992159,17.6980493 165.989806,11.2055855 154,11.2055855 C142.81644,11.2055855 139.010082,18.134716 139,26.6890472 L139,26.6890472 C139,26.6951622 139,26.7015551 139,26.7076701 C139,26.7126733 139,26.7173986 139,26.7221238 L139,26.7221238 C139.007561,35.7128437 142.009914,42.2055855 154,42.2055855 C165.18328,42.2055855 168.989638,35.2764549 168.99944,26.7221238 L169,26.7221238 C169,26.7157308 169,26.7096158 169,26.7032229 M154,40.8991988 C149.119952,40.8991988 147.460971,34.5459902 147.458731,26.7054465 C147.460971,18.8651807 149.119952,12.5116942 154,12.5116942 C158.879768,12.5116942 160.538749,18.8651807 160.541269,26.7054465 C160.538749,34.5459902 158.879768,40.8991988 154,40.8991988" id="Fill-9"></path>
                <path d="M251,26.7032229 C251,26.6984976 251,26.6937724 251,26.6890472 L250.99944,26.6890472 C250.992159,17.6980493 247.989806,11.2055855 236,11.2055855 C224.81644,11.2055855 221.010082,18.134716 221,26.6890472 L221,26.6890472 C221,26.6951622 221,26.7015551 221,26.7076701 C221,26.7126733 221,26.7173986 221,26.7221238 L221,26.7221238 C221.007561,35.7128437 224.009914,42.2055855 236,42.2055855 C247.18328,42.2055855 250.989638,35.2764549 250.99944,26.7221238 L251,26.7221238 C251,26.7157308 251,26.7096158 251,26.7032229 M236,40.8991988 C231.119952,40.8991988 229.460971,34.5459902 229.458731,26.7054465 C229.460971,18.8651807 231.119952,12.5116942 236,12.5116942 C240.879768,12.5116942 242.538749,18.8651807 242.541269,26.7054465 C242.538749,34.5459902 240.879768,40.8991988 236,40.8991988" id="Fill-12"></path>
                <path d="M112,13.995214 L99.8149326,13.995214 L99.8149326,29.9914529 C99.8149326,31.3118849 99.7677886,35.7449198 102.346727,37.4898349 C104.925666,39.23475 107.670157,37.6075648 107.670157,37.6075648 L108.238077,38.8102669 L102.725249,42.2055855 C91.9835544,42.2055855 91.8651464,35.7214285 91.8651464,33.3733868 L91.8651464,13.995214 L87,13.995214 L87,12.4958654 L91.8651464,12.4958654 L91.8651464,6.9073841 L98.8213463,3.20558548 L99.8149326,3.20558548 L99.8149326,12.4958654 L112,12.4958654" id="Fill-15"></path>
                <path d="M128.652819,13.995214 L120.671171,13.995214 L120.671171,29.9914529 C120.671171,31.3118849 120.624555,35.7449198 123.174617,37.4898349 C125.724679,39.23475 128.438439,37.6075648 128.438439,37.6075648 L129,38.8102669 L123.5489,42.2055855 C112.927482,42.2055855 112.8104,35.7214285 112.8104,33.3733868 L112.8104,13.995214 L108,13.995214 L108,12.4958654 L112.8104,12.4958654 L112.8104,6.9073841 L119.68871,3.20558548 L120.671171,3.20558548 L120.671171,12.4958654 L128.652819,12.4958654 L128.652819,13.995214 Z" id="Fill-17"></path>
                <polygon id="Fill-20" points="199 40.2939503 188.18807 25.1927169 198.188108 16.9586456 198.188108 12.2055855 188.968 12.2055855 190.484424 20.5597947 187.26636 23.9054468 178.889287 12.2055855 170 12.2055855 170 13.0922145 180.910548 28.3307097 170.948755 36.4604077 170.948755 41.2055855 179.897049 41.2055855 178.579773 32.9128043 181.773251 29.5358946 190.128743 41.2055855 199 41.2055855"></polygon>
                <path d="M201,12.7035574 L204.501394,12.7035574 L204.501394,10.5230148 C204.501394,10.5230148 204.501394,4.82694861 207.025934,2.48575481 C211.516188,-1.67818015 224,1.13418339 224,1.13418339 L223.451816,9.43689108 L218.601381,9.43689108 L215.243241,1.56857756 C215.243241,1.56857756 211.417411,0.68458127 211.217947,4.29605312 C211.051227,7.31303263 212.499864,11.9157859 212.499864,11.9157859 L212.499864,12.7035574 L222.626674,12.7035574 L222.626674,14.21578 L212.499864,14.21578 L212.499864,42.2055855 L204.501394,42.2055855 L204.501394,14.21578 L201,14.21578 L201,12.7035574 Z" id="Fill-21"></path>
                <path d="M251.272993,16.1341468 L251,14.9760375 L256.311242,12.2160111 C256.311242,12.2160111 262.292559,11.7231986 262.292559,17.5140216 L262.292559,21.9496103 L269.614305,12.5363392 L275,12.5363392 L275,20.471173 L262.292559,23.9704181 L262.292559,42.2055855 L254.07766,42.2055855 L254.07766,18.6970483 C254.07766,18.1408347 254.07766,15.4442094 251.272993,16.1341468" id="Fill-23"></path>
                <path d="M308.559956,38.0785708 C305.889921,39.1826925 305.772467,35.6013818 305.772467,34.407519 L305.772467,0.205585482 L297.879814,0.205585482 L297.879814,19.1840314 C296.863698,15.1084499 294.441683,11.2242976 288.669216,11.2242976 C280.888555,11.2242976 277.00956,18.1449234 277.000546,26.6956152 L277,26.6956152 C277,26.7020054 277,26.7081178 277,26.7145081 C277,26.7192313 277,26.7239545 277,26.7286777 L277.000546,26.7286777 C277.007102,35.7158504 279.948648,42.2055855 289.486479,42.2055855 C294.673313,42.2055855 296.912865,38.2744454 297.879814,34.3016633 L297.879814,35.2732571 C297.879814,41.4595614 300.538651,42.2113866 303.865337,42.2055855 L309,39.2424273 L308.559956,38.0785708 Z M291.630702,40.0742693 C286.90112,40.6513355 285.704999,34.0724483 285.702813,26.8842661 C285.704999,19.6960838 286.90112,13.1169189 291.630702,13.6942628 C295.477465,14.1638063 297.436493,20.5251475 297.436493,26.8842661 C297.436493,33.2433846 295.477465,39.6047259 291.630702,40.0742693 L291.630702,40.0742693 Z" id="Fill-25"></path>
            </g>
        </g>
    </g>
</svg>